<?xml version="1.0" encoding="utf-8"?>
<!-- Generator: Adobe Illustrator 16.0.0, SVG Export Plug-In . SVG Version: 6.00 Build 0)  -->
<!DOCTYPE svg PUBLIC "-//W3C//DTD SVG 1.1//EN" "http://www.w3.org/Graphics/SVG/1.1/DTD/svg11.dtd">
<svg version="1.1" xmlns="http://www.w3.org/2000/svg" xmlns:xlink="http://www.w3.org/1999/xlink" x="0px" y="0px"
	 width="335.986px" height="235.19px" viewBox="0 0 335.986 235.19" enable-background="new 0 0 335.986 235.19"
	 xml:space="preserve">
<g id="bg">
	<g>
		<g>
			<rect x="0.185" y="-0.297" fill="#FFFFFF" width="335.986" height="235.19"/>
		</g>
	</g>
	<circle fill="#FF918C" cx="169.374" cy="125.404" r="48.225"/>
	<rect x="135.881" y="135.134" fill-rule="evenodd" clip-rule="evenodd" fill="none" width="68.921" height="9.954"/>
	<text transform="matrix(1 0 0 1 135.8809 137.4287)" opacity="0.5"><tspan x="0" y="0" fill="#FFFFFF" font-family="'MyriadPro-Regular'" font-size="3.2339">Lorem</tspan><tspan x="8.676" y="0" fill="#FFFFFF" font-family="'MyriadPro-Regular'" font-size="3.2339"> </tspan><tspan x="9.372" y="0" fill="#FFFFFF" font-family="'MyriadPro-Regular'" font-size="3.2339">ipsum</tspan><tspan x="17.729" y="0" fill="#FFFFFF" font-family="'MyriadPro-Regular'" font-size="3.2339"> </tspan><tspan x="18.424" y="0" fill="#FFFFFF" font-family="'MyriadPro-Regular'" font-size="3.2339">dolor</tspan><tspan x="25.62" y="0" fill="#FFFFFF" font-family="'MyriadPro-Regular'" font-size="3.2339"> </tspan><tspan x="26.315" y="0" fill="#FFFFFF" font-family="'MyriadPro-Regular'" font-size="3.2339">sit</tspan><tspan x="29.423" y="0" fill="#FFFFFF" font-family="'MyriadPro-Regular'" font-size="3.2339"> </tspan><tspan x="30.119" y="0" fill="#FFFFFF" font-family="'MyriadPro-Regular'" font-size="3.2339">amet,</tspan><tspan x="37.734" y="0" fill="#FFFFFF" font-family="'MyriadPro-Regular'" font-size="3.2339"> </tspan><tspan x="38.431" y="0" fill="#FFFFFF" font-family="'MyriadPro-Regular'" font-size="3.2339">consectetur</tspan><tspan x="54.398" y="0" fill="#FFFFFF" font-family="'MyriadPro-Regular'" font-size="3.2339"> </tspan><tspan x="55.095" y="0" fill="#FFFFFF" font-family="'MyriadPro-Regular'" font-size="3.2339">adipiscing </tspan><tspan x="0" y="3.881" fill="#FFFFFF" font-family="'MyriadPro-Regular'" font-size="3.2339">elit,</tspan><tspan x="4.88" y="3.881" fill="#FFFFFF" font-family="'MyriadPro-Regular'" font-size="3.2339"> </tspan><tspan x="5.637" y="3.881" fill="#FFFFFF" font-family="'MyriadPro-Regular'" font-size="3.2339">sed</tspan><tspan x="10.362" y="3.881" fill="#FFFFFF" font-family="'MyriadPro-Regular'" font-size="3.2339"> </tspan><tspan x="11.119" y="3.881" fill="#FFFFFF" font-family="'MyriadPro-Regular'" font-size="3.2339">do</tspan><tspan x="14.718" y="3.881" fill="#FFFFFF" font-family="'MyriadPro-Regular'" font-size="3.2339"> </tspan><tspan x="15.476" y="3.881" fill="#FFFFFF" font-family="'MyriadPro-Regular'" font-size="3.2339">eiusmod</tspan><tspan x="27.211" y="3.881" fill="#FFFFFF" font-family="'MyriadPro-Regular'" font-size="3.2339"> </tspan><tspan x="27.968" y="3.881" fill="#FFFFFF" font-family="'MyriadPro-Regular'" font-size="3.2339">s</tspan><tspan x="29.249" y="3.881" fill="#FFFFFF" font-family="'MyriadPro-Regular'" font-size="3.2339"> </tspan><tspan x="30.006" y="3.881" fill="#FFFFFF" font-family="'MyriadPro-Regular'" font-size="3.2339">nostrud</tspan><tspan x="40.59" y="3.881" fill="#FFFFFF" font-family="'MyriadPro-Regular'" font-size="3.2339"> </tspan><tspan x="41.348" y="3.881" fill="#FFFFFF" font-family="'MyriadPro-Regular'" font-size="3.2339">exercitation</tspan><tspan x="57.374" y="3.881" fill="#FFFFFF" font-family="'MyriadPro-Regular'" font-size="3.2339"> </tspan><tspan x="58.131" y="3.881" fill="#FFFFFF" font-family="'MyriadPro-Regular'" font-size="3.2339">ullamco </tspan></text>
	<text transform="matrix(1 0 0 1 148.25 106.7998)"><tspan x="0" y="0" fill="#FFFFFF" font-family="'Roboto-Regular'" font-size="11.518">DIGITAL </tspan><tspan x="-11.121" y="13.821" fill="#FFFFFF" font-family="'Roboto-Regular'" font-size="11.518">MARKETING</tspan></text>
	
		<rect x="148.323" y="148.403" fill="none" stroke="#FFFFFF" stroke-width="0.5" stroke-miterlimit="10" width="42.102" height="11.78"/>
	<text transform="matrix(1 0 0 1 152.79 156.4717)" fill="#FFFFFF" font-family="'Roboto-Thin'" font-size="6.0883">READ MORE</text>
	
		<line fill="#FFFFFF" stroke="#0E3C54" stroke-width="2" stroke-linecap="round" stroke-linejoin="round" stroke-miterlimit="10" x1="43.701" y1="129.178" x2="295.047" y2="129.178"/>
	<g>
		<polyline fill="none" stroke="#231F20" stroke-width="2" stroke-linejoin="round" stroke-miterlimit="10" points="63.258,54.439 
			63.335,48.015 56.977,48.158 		"/>
		
			<line fill="none" stroke="#231F20" stroke-width="2" stroke-linejoin="round" stroke-miterlimit="10" x1="63.443" y1="48.122" x2="48.259" y2="63.307"/>
	</g>
	<polyline fill="none" stroke="#231F20" stroke-width="2" stroke-linejoin="round" stroke-miterlimit="10" points="63.644,36.591 
		63.722,30.166 57.361,30.309 	"/>
	
		<line fill="none" stroke="#0E3C54" stroke-width="2" stroke-miterlimit="10" stroke-dasharray="2" x1="63.87" y1="30.315" x2="48.196" y2="45.989"/>
	
		<line fill="none" stroke="#0E3C54" stroke-width="2" stroke-miterlimit="10" stroke-dasharray="2" x1="45.747" y1="48.439" x2="29.583" y2="64.604"/>
	<g>
		<polyline fill="none" stroke="#231F20" stroke-width="2" stroke-linejoin="round" stroke-miterlimit="10" points="
			270.457,184.285 270.379,190.71 276.738,190.566 		"/>
		
			<line fill="none" stroke="#231F20" stroke-width="2" stroke-linejoin="round" stroke-miterlimit="10" x1="270.271" y1="190.603" x2="285.455" y2="175.418"/>
	</g>
	<polyline fill="none" stroke="#231F20" stroke-width="2" stroke-linejoin="round" stroke-miterlimit="10" points="270.07,202.134 
		269.992,208.559 276.354,208.416 	"/>
	
		<line fill="none" stroke="#0E3C54" stroke-width="2" stroke-miterlimit="10" stroke-dasharray="2" x1="269.844" y1="208.409" x2="285.518" y2="192.735"/>
	
		<line fill="none" stroke="#0E3C54" stroke-width="2" stroke-miterlimit="10" stroke-dasharray="2" x1="287.967" y1="190.285" x2="304.131" y2="174.121"/>
	<path fill-rule="evenodd" clip-rule="evenodd" fill="#FFFFFF" stroke="#34525C" stroke-width="2" stroke-miterlimit="10" d="
		M242.5,146.84c-12.084,0-21.885,9.801-21.885,21.886c0,12.086,9.801,21.887,21.885,21.887c12.086,0,21.885-9.801,21.885-21.887
		C264.385,156.641,254.586,146.84,242.5,146.84z M253.442,171.463h-8.204v8.203h-5.475v-8.203h-8.205v-5.472h8.205v-8.205h5.475
		v8.205h8.204V171.463z"/>
	<g>
		<path fill="#FFFFFF" d="M286.987,107.39c0,1.65-1.351,3-3,3h-52.464c-1.65,0-3-1.35-3-3V64.927c0-1.65,1.35-3,3-3h52.464
			c1.649,0,3,1.35,3,3V107.39z"/>
		<path fill="none" stroke="#3D3437" stroke-width="2" stroke-linecap="round" stroke-linejoin="round" stroke-miterlimit="10" d="
			M286.987,107.39c0,1.65-1.351,3-3,3h-52.464c-1.65,0-3-1.35-3-3V64.927c0-1.65,1.35-3,3-3h52.464c1.649,0,3,1.35,3,3V107.39z"/>
	</g>
	<path fill="#3D3437" d="M237.014,66.967c0,0.696-0.562,1.26-1.262,1.26c-0.693,0-1.259-0.563-1.259-1.26s0.565-1.26,1.259-1.26
		C236.451,65.707,237.014,66.271,237.014,66.967"/>
	<path fill="#3D3437" d="M242.053,66.967c0,0.696-0.562,1.26-1.26,1.26c-0.695,0-1.26-0.563-1.26-1.26s0.564-1.26,1.26-1.26
		C241.49,65.707,242.053,66.271,242.053,66.967"/>
	<path fill="#3D3437" d="M247.094,66.967c0,0.696-0.563,1.26-1.261,1.26c-0.695,0-1.259-0.563-1.259-1.26s0.563-1.26,1.259-1.26
		C246.53,65.707,247.094,66.271,247.094,66.967"/>
	<line fill="none" stroke="#3D3437" stroke-width="2" stroke-miterlimit="10" x1="259.443" y1="66.817" x2="283.268" y2="66.817"/>
	<g>
		<path fill="#FFFFFF" d="M112.169,192.382c0,1.65-1.351,3-3,3H56.705c-1.65,0-3-1.35-3-3v-42.463c0-1.65,1.35-3,3-3h52.464
			c1.649,0,3,1.35,3,3V192.382z"/>
		<path fill="none" stroke="#3D3437" stroke-width="2" stroke-linecap="round" stroke-linejoin="round" stroke-miterlimit="10" d="
			M112.169,192.382c0,1.65-1.351,3-3,3H56.705c-1.65,0-3-1.35-3-3v-42.463c0-1.65,1.35-3,3-3h52.464c1.649,0,3,1.35,3,3V192.382z"/>
	</g>
	<path fill="#3D3437" d="M62.195,151.959c0,0.696-0.562,1.26-1.262,1.26c-0.693,0-1.259-0.563-1.259-1.26s0.565-1.26,1.259-1.26
		C61.633,150.699,62.195,151.263,62.195,151.959"/>
	<path fill="#3D3437" d="M67.234,151.959c0,0.696-0.562,1.26-1.26,1.26c-0.695,0-1.26-0.563-1.26-1.26s0.564-1.26,1.26-1.26
		C66.672,150.699,67.234,151.263,67.234,151.959"/>
	<path fill="#3D3437" d="M72.275,151.959c0,0.696-0.563,1.26-1.261,1.26c-0.695,0-1.259-0.563-1.259-1.26s0.563-1.26,1.259-1.26
		C71.712,150.699,72.275,151.263,72.275,151.959"/>
	<line fill="none" stroke="#3D3437" stroke-width="2" stroke-miterlimit="10" x1="84.625" y1="151.81" x2="108.449" y2="151.81"/>
	<g>
		<g>
			<path fill="#FFFFFF" stroke="#0E3C54" stroke-width="2" stroke-miterlimit="10" d="M83.233,87c0,0-0.011,0.654-0.011,0.721
				c0,4.684,3.793,8.992,8.474,8.992c4.682,0,8.477-4.309,8.477-8.992c0-0.066-0.007-0.721-0.007-0.721"/>
			<path fill="#FFFFFF" stroke="#0E3C54" stroke-width="2" stroke-miterlimit="10" d="M111.365,79.912
				c-0.037-0.088-0.096-0.17-0.134-0.258c-0.019-0.046-0.04-0.092-0.061-0.134c-0.454-3.083,1.513-7.193,1.513-7.193l-2.549-2.548
				l-2.55-2.547c0,0-4.175,2.002-7.263,1.504c-0.282-0.123-0.57-0.134-0.856-0.246c-2.604-1.793-4.185-6.23-4.185-6.23H91.68h-3.602
				c0,0-1.596,4.486-4.221,6.26c-0.191,0.074-0.383,0.097-0.572,0.178c-3.123,0.676-7.629-1.537-7.629-1.537l-2.543,2.533
				l-2.609,2.479c0,0,2.631,4.797,1.752,7.927c-1.602,2.825-6.363,4.555-6.363,4.555v2.935v0.668l-0.314,3.602
				c0,0,4.926,1.738,6.525,4.563c0.883,3.136-1.566,7.979-1.566,7.979l2.512,2.547l2.529,2.549c0,0,4.705-2.455,7.84-1.673
				c2.91,1.516,4.695,6.677,4.695,6.677h3.602h3.604c0,0,1.982-5.709,5.16-6.873c3.096-0.443,7.254,1.646,7.254,1.646l2.547-2.512
				l2.549-2.531l-1.414-7.787c1.559-2.866,6.721-4.621,6.721-4.621V88.22v-0.631v-2.972
				C118.135,84.617,112.87,82.825,111.365,79.912z M100.173,88.016c0,4.68-3.795,8.587-8.477,8.587
				c-4.681,0-8.474-3.962-8.474-8.644c0-0.068,0.006-0.37,0.006-0.37h0.005c0.108-3.166,3.85-8.269,8.463-8.269
				c4.612,0,8.356,5.103,8.465,8.269C100.161,87.589,100.173,87.948,100.173,88.016z"/>
		</g>
		<path fill="#FFFFFF" stroke="#0E3C54" stroke-width="2" stroke-miterlimit="10" d="M91.678,75.192
			c-7.092,0-12.84,5.751-12.84,12.841c0,7.091,5.748,12.838,12.84,12.838c7.09,0,12.839-5.747,12.839-12.838
			C104.517,80.943,98.768,75.192,91.678,75.192z M91.678,97.223c-5.078,0-9.191-4.113-9.191-9.189s4.113-9.191,9.191-9.191
			c5.076,0,9.193,4.115,9.193,9.191S96.754,97.223,91.678,97.223z"/>
	</g>
	<path fill="#FF918C" d="M285.606,40.101c5.602-3.74,12.965-3.271,17.889,1.269c0.066,0.062,0.128,0.125,0.189,0.186l0.34,0.345
		c2.574,2.634,3.889,5.695,4.01,9.364l0.045,1.37l3.229-0.001l-6.346,6.347l-6.365-6.365l3.316,0.135l-0.171-1.632
		c-0.181-1.746-1.024-3.463-2.372-4.844c-2.404-2.404-6.178-3.04-9.236-1.646L285.606,40.101z"/>
	<path fill="#FF918C" d="M58.312,215.281c-5.604,3.739-12.963,3.272-17.89-1.269c-0.064-0.062-0.128-0.126-0.188-0.185l-0.34-0.346
		c-2.575-2.634-3.889-5.695-4.01-9.364l-0.045-1.369h-3.229l6.347-6.347l6.365,6.366l-3.317-0.136l0.17,1.631
		c0.181,1.747,1.024,3.464,2.371,4.844c2.404,2.404,6.179,3.041,9.239,1.646L58.312,215.281z"/>
	<path fill="none" stroke="#0E3C54" stroke-width="2" stroke-miterlimit="10" d="M282.606,39.101
		c5.602-3.74,12.965-3.271,17.889,1.269c0.066,0.062,0.128,0.125,0.189,0.186l0.34,0.345c2.574,2.634,3.889,5.695,4.01,9.364
		l0.045,1.37l3.229-0.001l-6.346,6.347l-6.365-6.365l3.316,0.135l-0.171-1.632c-0.181-1.746-1.024-3.463-2.372-4.844
		c-2.404-2.404-6.178-3.04-9.236-1.646L282.606,39.101z"/>
	<path fill="none" stroke="#0E3C54" stroke-width="2" stroke-miterlimit="10" d="M55.312,214.281
		c-5.604,3.739-12.963,3.272-17.89-1.269c-0.064-0.062-0.128-0.126-0.188-0.185l-0.34-0.346c-2.575-2.634-3.889-5.695-4.01-9.364
		l-0.045-1.369h-3.229l6.347-6.347l6.365,6.366l-3.317-0.136l0.17,1.631c0.181,1.747,1.024,3.464,2.371,4.844
		c2.404,2.404,6.179,3.041,9.239,1.646L55.312,214.281z"/>
	
		<rect x="236.509" y="78.073" fill="#FF918C" stroke="#0E3C54" stroke-width="2" stroke-miterlimit="10" width="7.615" height="7.286"/>
	
		<rect x="236.509" y="91.277" fill="#FFFFFF" stroke="#0E3C54" stroke-width="2" stroke-miterlimit="10" width="7.615" height="7.285"/>
	
		<line fill="#FFFFFF" stroke="#0E3C54" stroke-width="2" stroke-miterlimit="10" x1="249.102" y1="80.583" x2="279.667" y2="80.583"/>
	
		<line fill="#FFFFFF" stroke="#0E3C54" stroke-width="2" stroke-miterlimit="10" x1="249.102" y1="85.359" x2="279.667" y2="85.359"/>
	
		<line fill="#FFFFFF" stroke="#0E3C54" stroke-width="2" stroke-miterlimit="10" x1="249.102" y1="93.786" x2="279.667" y2="93.786"/>
	
		<line fill="#FFFFFF" stroke="#0E3C54" stroke-width="2" stroke-miterlimit="10" x1="249.102" y1="98.562" x2="279.667" y2="98.562"/>
	
		<rect x="95.718" y="163.753" fill="#FFFFFF" stroke="#0E3C54" stroke-width="2" stroke-miterlimit="10" width="7.615" height="7.286"/>
	
		<rect x="61.358" y="163.753" fill="#FF918C" stroke="#0E3C54" stroke-width="2" stroke-miterlimit="10" width="7.615" height="20.489"/>
	
		<line fill="#FFFFFF" stroke="#0E3C54" stroke-width="2" stroke-miterlimit="10" x1="73.951" y1="179.466" x2="104.517" y2="179.466"/>
	
		<line fill="#FFFFFF" stroke="#0E3C54" stroke-width="2" stroke-miterlimit="10" x1="73.951" y1="184.242" x2="104.517" y2="184.242"/>
	
		<line fill="#FFFFFF" stroke="#0E3C54" stroke-width="2" stroke-miterlimit="10" x1="73.951" y1="166.576" x2="91.517" y2="166.576"/>
	
		<line fill="#FFFFFF" stroke="#0E3C54" stroke-width="2" stroke-miterlimit="10" x1="73.951" y1="171.353" x2="91.517" y2="171.353"/>
	
		<line fill="#FFFFFF" stroke="#0E3C54" stroke-width="2" stroke-linecap="round" stroke-linejoin="round" stroke-miterlimit="10" x1="253.489" y1="40.394" x2="269.653" y2="24.229"/>
	
		<line fill="#FFFFFF" stroke="#0E3C54" stroke-width="2" stroke-linecap="round" stroke-linejoin="round" stroke-miterlimit="10" x1="245.189" y1="48.699" x2="248.348" y2="45.541"/>
	
		<line fill="none" stroke="#0E3C54" stroke-width="2" stroke-miterlimit="10" stroke-dasharray="2" x1="240.264" y1="43.771" x2="256.428" y2="27.607"/>
	<g>
		
			<line fill="#FFFFFF" stroke="#0E3C54" stroke-width="2" stroke-miterlimit="10" x1="42.552" y1="73.838" x2="40.204" y2="76.186"/>
		<line fill="#FFFFFF" stroke="#0E3C54" stroke-width="2" stroke-miterlimit="10" x1="35.775" y1="73.633" x2="38.122" y2="75.98"/>
		
			<line fill="#FFFFFF" stroke="#0E3C54" stroke-width="2" stroke-miterlimit="10" x1="35.868" y1="80.521" x2="38.214" y2="78.176"/>
		
			<line fill="#FFFFFF" stroke="#0E3C54" stroke-width="2" stroke-miterlimit="10" x1="42.645" y1="80.727" x2="40.298" y2="78.381"/>
	</g>
	<g>
		
			<line fill="#FFFFFF" stroke="#0E3C54" stroke-width="2" stroke-miterlimit="10" x1="237.835" y1="20.908" x2="235.487" y2="23.256"/>
		
			<line fill="#FFFFFF" stroke="#0E3C54" stroke-width="2" stroke-miterlimit="10" x1="231.059" y1="20.703" x2="233.405" y2="23.051"/>
		
			<line fill="#FFFFFF" stroke="#0E3C54" stroke-width="2" stroke-miterlimit="10" x1="231.151" y1="27.592" x2="233.497" y2="25.246"/>
		
			<line fill="#FFFFFF" stroke="#0E3C54" stroke-width="2" stroke-miterlimit="10" x1="237.928" y1="27.797" x2="235.581" y2="25.451"/>
	</g>
	<g>
		
			<line fill="#FFFFFF" stroke="#0E3C54" stroke-width="2" stroke-miterlimit="10" x1="280.235" y1="148.791" x2="277.888" y2="151.139"/>
		
			<line fill="#FFFFFF" stroke="#0E3C54" stroke-width="2" stroke-miterlimit="10" x1="273.459" y1="148.586" x2="275.806" y2="150.934"/>
		
			<line fill="#FFFFFF" stroke="#0E3C54" stroke-width="2" stroke-miterlimit="10" x1="273.552" y1="155.475" x2="275.897" y2="153.129"/>
		
			<line fill="#FFFFFF" stroke="#0E3C54" stroke-width="2" stroke-miterlimit="10" x1="280.328" y1="155.68" x2="277.981" y2="153.334"/>
	</g>
	<g>
		
			<line fill="#FFFFFF" stroke="#0E3C54" stroke-width="2" stroke-miterlimit="10" x1="237.835" y1="207.652" x2="235.487" y2="210"/>
		
			<line fill="#FFFFFF" stroke="#0E3C54" stroke-width="2" stroke-miterlimit="10" x1="231.059" y1="207.447" x2="233.405" y2="209.795"/>
		
			<line fill="#FFFFFF" stroke="#0E3C54" stroke-width="2" stroke-miterlimit="10" x1="231.151" y1="214.336" x2="233.497" y2="211.99"/>
		
			<line fill="#FFFFFF" stroke="#0E3C54" stroke-width="2" stroke-miterlimit="10" x1="237.928" y1="214.541" x2="235.581" y2="212.195"/>
	</g>
	<g>
		
			<line fill="#FFFFFF" stroke="#0E3C54" stroke-width="2" stroke-miterlimit="10" x1="32.925" y1="153.626" x2="30.577" y2="155.974"/>
		
			<line fill="#FFFFFF" stroke="#0E3C54" stroke-width="2" stroke-miterlimit="10" x1="26.148" y1="153.421" x2="28.495" y2="155.769"/>
		
			<line fill="#FFFFFF" stroke="#0E3C54" stroke-width="2" stroke-miterlimit="10" x1="26.241" y1="160.31" x2="28.587" y2="157.964"/>
		
			<line fill="#FFFFFF" stroke="#0E3C54" stroke-width="2" stroke-miterlimit="10" x1="33.018" y1="160.515" x2="30.671" y2="158.169"/>
	</g>
	<circle fill="none" stroke="#0E3C54" stroke-width="2" stroke-miterlimit="10" cx="108.128" cy="42.016" r="3.036"/>
	<circle fill="none" stroke="#0E3C54" stroke-width="2" stroke-miterlimit="10" cx="38.179" cy="107.029" r="3.036"/>
	<circle fill="none" stroke="#0E3C54" stroke-width="2" stroke-miterlimit="10" cx="304.83" cy="146.918" r="3.036"/>
	<circle fill="none" stroke="#0E3C54" stroke-width="2" stroke-miterlimit="10" cx="98.03" cy="215.18" r="3.036"/>
	
		<rect x="160.922" y="73.555" fill="#FFFFFF" stroke="#34525C" stroke-width="2" stroke-miterlimit="10" width="19.506" height="11.448"/>
	<path fill="#FFFFFF" stroke="#34525C" stroke-width="2" stroke-miterlimit="10" d="M207.962,69.373c0,2.31-1.872,4.182-4.177,4.182
		H136.9c-2.306,0-4.178-1.872-4.178-4.182v-43.98c0-2.31,1.872-4.179,4.178-4.179h66.885c2.305,0,4.177,1.869,4.177,4.179V69.373z"
		/>
	<rect x="135.723" y="30.464" fill="#FF918C" width="75.239" height="37.431"/>
	
		<rect x="132.723" y="27.464" fill="none" stroke="#0E3C54" stroke-width="2" stroke-miterlimit="10" width="75.239" height="37.431"/>
	
		<line fill="none" stroke="#3D3437" stroke-width="2" stroke-linecap="round" stroke-linejoin="round" stroke-miterlimit="10" x1="149.924" y1="85.003" x2="190.759" y2="85.003"/>
	
		<circle fill="none" stroke="#3D3437" stroke-width="2" stroke-linecap="round" stroke-linejoin="round" stroke-miterlimit="10" cx="170.343" cy="69.366" r="1.719"/>
	<g id="XMLID_146_">
		<g>
			
				<rect id="XMLID_25_" x="152.222" y="34.24" fill="#FFFFFF" stroke="#0E3C54" stroke-width="2" stroke-linejoin="round" stroke-miterlimit="10" width="36.906" height="24.639"/>
			
				<polygon id="XMLID_24_" fill="#FFFFFF" stroke="#0E3C54" stroke-width="2" stroke-linejoin="round" stroke-miterlimit="10" points="
				189.128,58.879 172.781,34.24 168.57,34.24 152.222,58.879 			"/>
			
				<polygon id="XMLID_23_" fill="#FFFFFF" stroke="#0E3C54" stroke-width="2" stroke-linejoin="round" stroke-miterlimit="10" points="
				189.128,34.24 170.675,49.791 152.222,34.24 			"/>
		</g>
	</g>
	<path fill="none" stroke="#1D1D1B" stroke-width="2" stroke-linejoin="round" stroke-miterlimit="10" d="M195.75,39.127
		c0,0,4.5,5.873,0,13.873"/>
	<path fill="none" stroke="#1D1D1B" stroke-width="2" stroke-linejoin="round" stroke-miterlimit="10" d="M145.334,53
		c0,0-4.5-5.873,0-13.873"/>
	<path fill="#FFFFFF" stroke="#34525C" stroke-width="2" stroke-miterlimit="10" d="M199.604,210.51c0,1.074-0.873,1.95-1.95,1.95
		h-56.556c-1.082,0-1.955-0.876-1.955-1.95v-39.982c0-1.078,0.873-1.951,1.955-1.951h56.556c1.077,0,1.95,0.873,1.95,1.951V210.51z"
		/>
	<path fill="#FFFFFF" stroke="#34525C" stroke-width="2" stroke-miterlimit="10" d="M209.518,213.208
		c0,0.607-0.869,1.102-1.947,1.102h-76.39c-1.077,0-1.95-0.494-1.95-1.102v-1.284c0-0.607,0.873-1.102,1.95-1.102h76.39
		c1.078,0,1.947,0.494,1.947,1.102V213.208z"/>
	
		<rect x="142.758" y="172.635" fill="#FFFFFF" stroke="#34525C" stroke-width="2" stroke-miterlimit="10" width="53.229" height="33.731"/>
	<g>
		<path fill="#FF918C" stroke="#0E3C54" stroke-width="2" stroke-miterlimit="10" d="M158.989,199.697
			c3.683-3.685,9.652-3.685,13.33,0c1.839,1.838,2.757,4.252,2.757,6.669h13.429c0-1.241-0.102-2.488-0.301-3.714l-7.783-1.238
			c-0.228-0.683-0.504-1.354-0.824-2.002l4.623-6.385c-0.714-0.986-1.51-1.941-2.403-2.839c-0.893-0.894-1.847-1.688-2.834-2.407
			l-6.379,4.631c-0.652-0.321-1.318-0.598-1.999-0.822l-1.238-7.79c-2.452-0.402-4.96-0.401-7.421,0.005l-1.236,7.785
			c-0.68,0.227-1.352,0.498-2.002,0.822l-6.367-4.629c-0.998,0.717-1.949,1.521-2.846,2.408c-0.89,0.895-1.694,1.85-2.399,2.845
			l4.62,6.374c-0.326,0.652-0.598,1.321-0.824,2.004l-7.777,1.238c-0.202,1.226-0.305,2.469-0.305,3.714h13.424
			C156.232,203.949,157.15,201.539,158.989,199.697z"/>
	</g>
</g>
<g id="text">
</g>
<g id="Layer_1">
</g>
<g id="Layer_3">
</g>
<g id="Layer_4">
</g>
<g id="Layer_5">
</g>
<g id="Layer_6">
</g>
<g id="Layer_7">
</g>
</svg>
