<?xml version="1.0" encoding="utf-8"?>
<!-- Generator: Adobe Illustrator 21.0.2, SVG Export Plug-In . SVG Version: 6.00 Build 0)  -->
<svg version="1.1" xmlns="http://www.w3.org/2000/svg" xmlns:xlink="http://www.w3.org/1999/xlink" x="0px" y="0px"
	 viewBox="0 0 720 503.999" enable-background="new 0 0 720 503.999" xml:space="preserve">
<g id="bg">
	<rect x="0" y="0" fill="#ACE0EE" width="720" height="503.999"/>
</g>
<g id="_x32_">
	<g>
		<g>
			<g>
				
					<ellipse transform="matrix(0.9998 -0.0218 0.0218 0.9998 -5.4275 7.767)" fill="none" stroke="#1E2326" stroke-width="2" stroke-miterlimit="10" stroke-dasharray="8.018,8.018" cx="354.111" cy="253.231" rx="179.548" ry="179.547"/>
			</g>
		</g>
		
			<line fill="none" stroke="#1E2326" stroke-width="2" stroke-miterlimit="10" stroke-dasharray="8" x1="355.279" y1="439.155" x2="355.279" y2="133.462"/>
		
			<line fill="none" stroke="#1E2326" stroke-width="2" stroke-miterlimit="10" stroke-dasharray="8" x1="570.834" y1="437.365" x2="152.136" y2="71.533"/>
		
			<line fill="none" stroke="#1E2326" stroke-width="2" stroke-miterlimit="10" stroke-dasharray="8" x1="602.925" y1="250.835" x2="107.634" y2="250.834"/>
		
			<line fill="none" stroke="#1E2326" stroke-width="2" stroke-miterlimit="10" stroke-dasharray="8" x1="545.653" y1="60.461" x2="152.27" y2="437.365"/>
	</g>
</g>
<g id="Layer_3">
	<g>
		<circle opacity="0.2" fill="#202D36" cx="164.943" cy="80.706" r="57.905"/>
		<circle fill="#F2F2F2" stroke="#000000" stroke-width="2" stroke-miterlimit="10" cx="152.136" cy="71.533" r="57.905"/>
		<g>
			<path fill="#FFBE1C" stroke="#000000" stroke-width="2" stroke-miterlimit="10" d="M179.719,81.628L142.152,43.83l-17.056,17.055
				l37.568,37.798c0.23,0.23,0.461,0.461,0.922,0.692c0.231,0.231,0.692,0.231,0.923,0.231l0.921,0.231l12.906,3.456l8.758,2.305
				l-2.305-8.757l-3.457-12.907l-0.231-0.921c0-0.232-0.229-0.693-0.459-0.923C180.18,82.088,180.18,81.858,179.719,81.628z"/>
			<g>
				<path fill="#5FD4AF" stroke="#000000" stroke-width="2" stroke-miterlimit="10" d="M169.808,95.456l-39.871-39.641l-5.071,5.071
					l37.799,37.797c0.23,0.23,0.461,0.461,0.922,0.692c0.231,0.231,0.692,0.231,0.923,0.231l0.921,0.231L169.808,95.456z"/>
				<path fill="#5FD4AF" stroke="#000000" stroke-width="2" stroke-miterlimit="10" d="M179.719,81.628L142.152,43.83l-5.071,5.071
					l39.643,39.641l4.378-4.379l-0.229-0.922c0-0.229-0.231-0.691-0.461-0.923C180.18,82.088,180.18,81.858,179.719,81.628z"/>
			</g>
			<polygon fill="#202D36" stroke="#000000" stroke-width="2" stroke-miterlimit="10" points="184.79,96.839 178.336,103.292 
				187.094,105.596 			"/>
			<path fill="#202D36" stroke="#000000" stroke-width="2" stroke-miterlimit="10" d="M124.636,32.998L114.034,43.6
				c-1.843,1.843-1.843,4.609,0,6.452l5.532,5.531l17.055-17.055l-5.531-5.53C129.476,31.155,126.48,31.155,124.636,32.998z"/>
			
				<rect x="148.373" y="44.078" transform="matrix(0.7073 -0.7069 0.7069 0.7073 -6.1578 129.5182)" fill="#5FD4AF" stroke="#000000" stroke-width="2" stroke-miterlimit="10" width="9.91" height="56.235"/>
			
				<rect x="118.841" y="46.148" transform="matrix(0.7069 -0.7073 0.7073 0.7069 3.1298 107.2237)" fill="#FFD15C" stroke="#000000" stroke-width="2" stroke-miterlimit="10" width="24.199" height="7.375"/>
		</g>
	</g>
</g>
<g id="Layer_4">
	<g>
		<path fill="#202D36" stroke="#000000" stroke-width="2" stroke-miterlimit="10" d="M473.784,157.105h-230.43
			c-5.066,0-9.21,4.145-9.21,9.208v134.813h247.007V164.472C481.152,160.326,477.929,157.105,473.784,157.105z"/>
		<path fill="#F2F2F2" stroke="#000000" stroke-width="2" stroke-miterlimit="10" d="M234.145,301.126v17.496
			c0,5.065,4.143,9.209,9.21,9.209h228.589c5.064,0,9.208-4.144,9.208-9.209v-17.496H234.145z"/>
		
			<rect x="308.039" y="327.831" fill="#CDD6E0" stroke="#000000" stroke-width="2" stroke-miterlimit="10" width="99.222" height="17.498"/>
		<rect x="239.023" y="163.801" fill="#FFDF8F" stroke="#000000" stroke-miterlimit="10" width="237.249" height="130.059"/>
		<g>
			<path fill="#FFFFFF" stroke="#000000" stroke-width="2" stroke-miterlimit="10" d="M394.062,175.974h-69.286v108.461h69.286
				c0.459,0,0.847-0.387,0.847-0.846V176.821C394.909,176.326,394.521,175.974,394.062,175.974z"/>
			<g>
				<path fill="#EEC145" d="M351.462,263.349c0.986,2.958,4.344,5.378,7.462,5.378h1.905c3.118,0,6.469-2.423,7.446-5.384
					l2.968-8.996c0.977-2.961,0.288-7.456-1.532-9.988l-6.561-9.131c-1.819-2.532-4.797-2.532-6.616,0l-6.56,9.13
					c-1.819,2.532-2.501,7.025-1.515,9.983L351.462,263.349z"/>
				<path fill="none" stroke="#000000" stroke-width="2" stroke-miterlimit="10" d="M351.462,263.349
					c0.986,2.958,4.344,5.378,7.462,5.378h1.905c3.118,0,6.469-2.423,7.446-5.384l2.968-8.996c0.977-2.961,0.288-7.456-1.532-9.988
					l-6.561-9.131c-1.819-2.532-4.797-2.532-6.616,0l-6.56,9.13c-1.819,2.532-2.501,7.025-1.515,9.983L351.462,263.349z"/>
			</g>
			<path fill="#ACB3BA" stroke="#000000" stroke-width="2" stroke-miterlimit="10" d="M369.236,267.287h-7.516v-13.151
				c0-1.038-0.842-1.877-1.878-1.877c-1.038,0-1.877,0.839-1.877,1.877v13.151h-7.516c-1.037,0-1.879,0.842-1.879,1.88
				c0,1.038,0.842,1.877,1.879,1.877h18.788c1.037,0,1.876-0.839,1.876-1.877C371.113,268.129,370.273,267.287,369.236,267.287z"/>
			<path fill="#8AC9D9" stroke="#000000" stroke-width="2" stroke-miterlimit="10" d="M323.691,175.974h-2.919
				c-2.892,0-5.22,2.328-5.22,5.221v98.024c0,2.89,2.328,5.217,5.22,5.217h2.919V175.974z"/>
			<g>
				<path fill="#5FD4AF" d="M386.351,217.77c0,1.559-1.276,2.835-2.835,2.835h-46.374c-1.559,0-2.835-1.276-2.835-2.835v-11.985
					c0-1.559,1.276-2.835,2.835-2.835h46.374c1.559,0,2.835,1.276,2.835,2.835V217.77z"/>
				<path fill="none" stroke="#000000" stroke-width="2" stroke-miterlimit="10" d="M386.351,217.77
					c0,1.559-1.276,2.835-2.835,2.835h-46.374c-1.559,0-2.835-1.276-2.835-2.835v-11.985c0-1.559,1.276-2.835,2.835-2.835h46.374
					c1.559,0,2.835,1.276,2.835,2.835V217.77z"/>
			</g>
			
				<rect x="338.406" y="209.276" fill="#ACB3BA" stroke="#000000" stroke-width="2" stroke-miterlimit="10" width="43.849" height="4.469"/>
			<path fill="#ACB3BA" stroke="#000000" stroke-width="2" stroke-miterlimit="10" d="M395.301,175.917h-0.363v108.572h0.363
				c3.003,0,5.436-2.628,5.436-5.869v-96.834C400.736,178.544,398.303,175.917,395.301,175.917z"/>
		</g>
		<path fill="#F2F2F2" stroke="#000000" stroke-width="2" stroke-miterlimit="10" d="M441.024,351.897
			c0,0.798-1.451,1.445-3.241,1.445h-160.27c-1.79,0-3.241-0.647-3.241-1.445v-6.74c0-0.798,1.451-1.445,3.241-1.445h160.27
			c1.79,0,3.241,0.647,3.241,1.445V351.897z"/>
	</g>
</g>
<g id="Layer_6">
	<g>
		<circle opacity="0.2" fill="#202D36" cx="368.128" cy="77.615" r="57.905"/>
		<circle fill="#F2F2F2" stroke="#000000" stroke-width="2" stroke-miterlimit="10" cx="355.321" cy="68.442" r="57.905"/>
		<polygon fill="#202D36" stroke="#000000" stroke-width="2" stroke-miterlimit="10" points="384.245,87.888 363.241,66.889 
			380.387,58.319 331.228,41.933 347.612,91.089 356.18,73.946 377.186,94.951 		"/>
	</g>
</g>
<g id="Layer7">
	<g>
		<circle opacity="0.2" fill="#202D36" cx="553.24" cy="77.615" r="57.905"/>
		<circle fill="#F2F2F2" stroke="#000000" stroke-width="2" stroke-miterlimit="10" cx="540.433" cy="68.442" r="57.905"/>
		<polygon fill="#F2F2F2" stroke="#000000" stroke-width="2" stroke-miterlimit="10" points="560.562,81.036 555.074,86.524 
			549.414,80.865 554.903,75.376 		"/>
		<path fill="#202D36" stroke="#000000" stroke-width="2" stroke-miterlimit="10" d="M554.045,34.042
			c-12.692-12.521-33.102-12.693-45.794,0c-12.692,12.692-12.863,32.93-0.171,45.622c12.521,12.692,33.102,12.692,45.794,0.171
			C566.566,67.315,566.566,46.733,554.045,34.042z"/>
		<path fill="#F2F2F2" stroke="#000000" stroke-width="2" stroke-miterlimit="10" d="M549.87,38.187
			c-10.39-10.249-27.097-10.39-37.487,0c-10.39,10.39-10.529,26.956-0.14,37.346c10.249,10.39,27.097,10.39,37.486,0.14
			C560.119,65.425,560.119,48.577,549.87,38.187z"/>
		<path fill="#FFBE1C" stroke="#000000" stroke-width="2" stroke-miterlimit="10" d="M552.235,88.285l15.371,15.371
			c2.826,2.826,7.41,2.826,10.237,0c2.827-2.827,2.827-7.411,0-10.237l-15.371-15.371L552.235,88.285z"/>
	</g>
</g>
<g id="Layer_5">
	<g>
		<circle opacity="0.2" fill="#202D36" cx="623.922" cy="256.283" r="63.124"/>
		<circle fill="#F2F2F2" stroke="#000000" stroke-width="2" stroke-miterlimit="10" cx="609.961" cy="246.283" r="63.124"/>
		
			<rect x="569.182" y="214.12" fill="#CDD6E0" stroke="#000000" stroke-width="2" stroke-miterlimit="10" width="79.185" height="63.581"/>
		
			<rect x="576.011" y="220.346" fill="#C7E5ED" stroke="#000000" stroke-width="2" stroke-miterlimit="10" width="65.511" height="51.934"/>
		<g id="XMLID_10216_">
			<g id="XMLID_10217_">
				<g id="XMLID_10218_">
					<g id="XMLID_10219_">
						<polygon id="XMLID_12785_" fill="#5D8995" stroke="#000000" stroke-width="2" stroke-miterlimit="10" points="641.522,245.91 
							617.413,257.504 588.85,256.283 575.822,272.28 641.522,272.28 						"/>
					</g>
				</g>
			</g>
		</g>
		<g id="XMLID_10204_">
			<g id="XMLID_10205_">
				<g id="XMLID_10206_">
					<g id="XMLID_10207_">
						
							<circle id="XMLID_12782_" fill="#FFBE1C" stroke="#000000" stroke-width="2" stroke-miterlimit="10" cx="608.671" cy="242.152" r="7.366"/>
					</g>
				</g>
			</g>
		</g>
	</g>
</g>
<g id="Layer8">
	<circle opacity="0.2" fill="#202D36" cx="366.246" cy="437.365" r="57.905"/>
	<circle fill="#F2F2F2" stroke="#000000" stroke-width="2" stroke-miterlimit="10" cx="353.439" cy="428.192" r="57.905"/>
	<g opacity="0.1">
		<path fill="#202D36" stroke="#000000" stroke-width="2" stroke-miterlimit="10" d="M401.989,424.397v-1.515
			c0-4.229-3.429-7.658-7.658-7.658h-4.375v0.001h-65.867l-13.792,8.416l6.896,4.208l0,0l6.896,4.207l70.242-0.001
			C398.56,432.055,401.989,428.626,401.989,424.397z"/>
		<path fill="#202D36" stroke="#000000" stroke-width="2" stroke-miterlimit="10" d="M391.482,438.261
			c-0.594-0.265-1.44,0.033-2.169,0.084c-0.093,0.006-0.182,0.095-0.269,0.153c-1.696,1.083-3.391,2.166-5.086,3.25v-1.746h-2.638
			h-65.888l0,0c-1.457,0-2.638,1.181-2.638,2.638l0,0v7.753l0,0c0,1.457,1.181,2.638,2.638,2.638l0,0h65.888h2.638v-1.746
			c1.695,1.084,3.39,2.168,5.086,3.251c0.13,0.083,0.361,0.158,0.514,0.178c0.667,0.085,1.395,0.294,1.924,0.059
			c3.495-1.557,8.302-5.147,12.116-7.339v-1.836C399.783,443.408,394.977,439.818,391.482,438.261z"/>
	</g>
	<polygon fill="#FFBE1C" stroke="#000000" stroke-width="2" stroke-miterlimit="10" points="318.257,427.507 304.464,419.092 
		318.257,410.676 383.692,410.676 383.692,427.507 	"/>
	<path fill="#FF617B" stroke="#000000" stroke-width="2" stroke-miterlimit="10" d="M396.157,418.884v0.413
		c0,4.534-3.675,8.209-8.209,8.209h-3.824v-16.831h3.824C392.482,410.675,396.157,414.35,396.157,418.884z"/>
	
		<rect x="318.259" y="417.528" opacity="0.2" fill="#656D78" stroke="#000000" stroke-width="2" stroke-miterlimit="10" width="65.936" height="3.13"/>
	
		<polygon fill="#E6E9ED" stroke="#000000" stroke-width="2" stroke-linecap="round" stroke-linejoin="round" stroke-miterlimit="10" points="
		318.257,410.676 304.464,419.092 318.257,427.507 	"/>
	<polygon fill="#656D78" stroke="#000000" stroke-width="2" stroke-miterlimit="10" points="311.361,414.884 304.464,419.092 
		311.361,423.3 	"/>
	<g>
		<path fill-rule="evenodd" clip-rule="evenodd" fill="#F2F2F2" stroke="#000000" stroke-width="2" stroke-miterlimit="10" d="
			M377.971,446.638c1.746,1.117,3.493,2.234,5.241,3.35c0.087,0.056,0.176,0.146,0.269,0.153c0.729,0.052,1.574,0.348,2.169,0.083
			c3.495-1.557,8.302-5.147,12.116-7.339v-1.836c-3.814-2.191-8.621-5.781-12.116-7.338c-0.594-0.265-1.44,0.033-2.169,0.084
			c-0.093,0.006-0.182,0.096-0.269,0.153c-1.748,1.116-3.495,2.232-5.241,3.349c0.003,1.556-0.002,3.114,0.003,4.67
			C377.969,443.526,377.974,445.082,377.971,446.638z"/>
	</g>
	<path fill="#202D36" stroke="#000000" stroke-width="2" stroke-miterlimit="10" d="M306.961,438.093
		c0-1.458,1.181-2.638,2.638-2.638h65.888c1.458,0,2.638,1.181,2.638,2.638v7.753c0,1.458-1.181,2.638-2.638,2.638h-65.888
		c-1.458,0-2.638-1.181-2.638-2.638V438.093z"/>
	
		<circle fill-rule="evenodd" clip-rule="evenodd" fill="#5FD4AF" stroke="#000000" stroke-width="2" stroke-miterlimit="10" cx="383.202" cy="441.968" r="2.343"/>
	<path fill="#5FD4AF" stroke="#000000" stroke-width="2" stroke-miterlimit="10" d="M378.126,448.484h-64.65
		c-3.598,0-6.515-2.917-6.515-6.515l0,0c0-3.598,2.917-6.515,6.515-6.515h64.65V448.484z"/>
	
		<rect x="378.126" y="440.88" fill="#5FD4AF" stroke="#000000" stroke-width="2" stroke-miterlimit="10" width="4.314" height="2.177"/>
</g>
<g id="Layer_9">
	<g>
		<circle opacity="0.2" fill="#202D36" cx="570.834" cy="437.365" r="57.905"/>
		<circle fill="#F2F2F2" stroke="#000000" stroke-width="2" stroke-miterlimit="10" cx="558.028" cy="428.192" r="57.905"/>
		
			<rect x="524.838" y="404.804" fill="#F2F2F2" stroke="#000000" stroke-width="2" stroke-miterlimit="10" width="64.81" height="3.349"/>
		<path fill="#F2F2F2" stroke="#000000" stroke-width="2" stroke-miterlimit="10" d="M524.362,443.683
			c-0.002-0.124-0.007-0.248-0.007-0.372c0-4.522,0.885-8.906,2.631-13.034c1.685-3.986,4.1-7.569,7.176-10.643
			c3.078-3.076,6.658-5.492,10.646-7.176c4.125-1.746,8.51-2.632,13.031-2.632c4.523,0,8.908,0.886,13.033,2.632
			c3.987,1.685,7.568,4.1,10.643,7.176c3.075,3.075,5.491,6.658,7.178,10.643c1.744,4.128,2.63,8.512,2.63,13.034
			c0,0.125-0.006,0.248-0.007,0.372h3.348c0.001-0.124,0.006-0.248,0.006-0.372c0-20.342-16.49-36.833-36.831-36.833
			c-20.342,0-36.832,16.491-36.832,36.833c0,0.125,0.005,0.248,0.006,0.372H524.362z"/>
		
			<rect x="551.286" y="399.925" fill="#F2F2F2" stroke="#000000" stroke-width="2" stroke-miterlimit="10" width="13.107" height="13.107"/>
		
			<rect x="583.095" y="399.925" fill="#F2F2F2" stroke="#000000" stroke-width="2" stroke-miterlimit="10" width="13.107" height="13.107"/>
		
			<rect x="518.284" y="399.925" fill="#F2F2F2" stroke="#000000" stroke-width="2" stroke-miterlimit="10" width="13.107" height="13.107"/>
		
			<rect x="586.966" y="437.13" fill="#F2F2F2" stroke="#000000" stroke-width="2" stroke-miterlimit="10" width="13.107" height="13.107"/>
		
			<rect x="515.981" y="437.13" fill="#F2F2F2" stroke="#000000" stroke-width="2" stroke-miterlimit="10" width="13.107" height="13.107"/>
	</g>
</g>
<g id="Layer_10">
	<g>
		<circle opacity="0.2" fill="#202D36" cx="109.223" cy="255.869" r="57.905"/>
		<circle fill="#F2F2F2" stroke="#000000" stroke-width="2" stroke-miterlimit="10" cx="96.416" cy="246.696" r="57.905"/>
		<g>
			<path fill="#5FD4AF" stroke="#000000" stroke-width="2" stroke-miterlimit="10" d="M128.736,288.928H64.483
				c-0.655,0-1.184-0.529-1.184-1.185v-81.426c0-0.655,0.529-1.186,1.184-1.186h64.279c0.656,0,1.186,0.531,1.186,1.186v81.452
				C129.921,288.399,129.392,288.928,128.736,288.928z"/>
			<path fill="#F2F2F2" stroke="#000000" stroke-width="2" stroke-miterlimit="10" d="M86.289,283.295h35.893
				c1.685,0,3.062-1.377,3.062-3.062V212.88c0-1.683-1.377-3.06-3.062-3.06H71.135c-1.682,0-3.06,1.378-3.06,3.06v52.2
				L86.289,283.295z"/>
			<g>
				<path fill="#5FD4AF" stroke="#000000" stroke-width="2" stroke-miterlimit="10" d="M84.52,222.961h-8.093
					c-0.743,0-1.349,0.604-1.349,1.348v8.093c0,0.743,0.605,1.349,1.349,1.349h8.093c0.743,0,1.348-0.605,1.348-1.349v-8.093
					C85.867,223.565,85.263,222.961,84.52,222.961z"/>
				<path fill="#5FD4AF" stroke="#000000" stroke-width="2" stroke-miterlimit="10" d="M84.52,239.145h-8.093
					c-0.743,0-1.349,0.604-1.349,1.348v8.094c0,0.743,0.605,1.348,1.349,1.348h8.093c0.743,0,1.348-0.604,1.348-1.348v-8.094
					C85.867,239.75,85.263,239.145,84.52,239.145z"/>
				<path fill="#5FD4AF" stroke="#000000" stroke-width="2" stroke-miterlimit="10" d="M84.52,255.33h-8.093
					c-0.743,0-1.349,0.605-1.349,1.349v8.093c0,0.743,0.605,1.349,1.349,1.349h8.093c0.743,0,1.348-0.605,1.348-1.349v-8.093
					C85.867,255.935,85.263,255.33,84.52,255.33z"/>
				<path fill="#5FD4AF" stroke="#000000" stroke-width="2" stroke-miterlimit="10" d="M116.89,222.961H92.611
					c-0.741,0-1.348,0.604-1.348,1.348v8.093c0,0.743,0.606,1.349,1.348,1.349h24.278c0.743,0,1.35-0.605,1.35-1.349v-8.093
					C118.239,223.565,117.633,222.961,116.89,222.961z"/>
				<path fill="#5FD4AF" stroke="#000000" stroke-width="2" stroke-miterlimit="10" d="M116.89,239.145H92.611
					c-0.741,0-1.348,0.604-1.348,1.348v8.094c0,0.743,0.606,1.348,1.348,1.348h24.278c0.743,0,1.35-0.604,1.35-1.348v-8.094
					C118.239,239.75,117.633,239.145,116.89,239.145z"/>
				<path fill="#5FD4AF" stroke="#000000" stroke-width="2" stroke-miterlimit="10" d="M116.89,255.33H92.611
					c-0.741,0-1.348,0.605-1.348,1.349v8.093c0,0.743,0.606,1.349,1.348,1.349h24.278c0.743,0,1.35-0.605,1.35-1.349v-8.093
					C118.239,255.935,117.633,255.33,116.89,255.33z"/>
			</g>
			<path fill="#EEC145" stroke="#000000" stroke-width="2" stroke-miterlimit="10" d="M101.855,202.459v-1.841
				c0-2.9-2.345-5.245-5.245-5.245c-2.9,0-5.244,2.345-5.244,5.245v1.841H80.89v9.487h31.466v-9.487H101.855z"/>
			<circle fill="#202D36" stroke="#000000" stroke-width="2" stroke-miterlimit="10" cx="96.61" cy="200.619" r="2.623"/>
			
				<path fill="#FFFFFF" stroke="#000000" stroke-width="2" stroke-linecap="round" stroke-linejoin="round" stroke-miterlimit="10" d="
				M83.228,265.079H68.074l18.215,18.216v-15.154C86.289,266.458,84.912,265.079,83.228,265.079z"/>
		</g>
	</g>
</g>
<g id="Layer_11">
	<g>
		
			<line fill="none" stroke="#FFFFFF" stroke-width="2" stroke-linecap="round" stroke-linejoin="round" stroke-miterlimit="10" x1="95.117" y1="151.504" x2="105.371" y2="151.176"/>
		
			<line fill="none" stroke="#FFFFFF" stroke-width="2" stroke-linecap="round" stroke-linejoin="round" stroke-miterlimit="10" x1="100.077" y1="146.211" x2="100.405" y2="156.469"/>
	</g>
	<g>
		
			<line fill="none" stroke="#1E2326" stroke-width="2" stroke-linecap="round" stroke-linejoin="round" stroke-miterlimit="10" x1="286.137" y1="102.62" x2="296.391" y2="102.292"/>
		
			<line fill="none" stroke="#1E2326" stroke-width="2" stroke-linecap="round" stroke-linejoin="round" stroke-miterlimit="10" x1="291.097" y1="97.326" x2="291.425" y2="107.585"/>
	</g>
	<g>
		
			<line fill="none" stroke="#FFFFFF" stroke-width="2" stroke-linecap="round" stroke-linejoin="round" stroke-miterlimit="10" x1="107.329" y1="336.584" x2="117.583" y2="336.256"/>
		
			<line fill="none" stroke="#FFFFFF" stroke-width="2" stroke-linecap="round" stroke-linejoin="round" stroke-miterlimit="10" x1="112.289" y1="331.29" x2="112.617" y2="341.549"/>
	</g>
	<g>
		
			<line fill="none" stroke="#1E2326" stroke-width="2" stroke-linecap="round" stroke-linejoin="round" stroke-miterlimit="10" x1="244.614" y1="463.885" x2="254.868" y2="463.557"/>
		
			<line fill="none" stroke="#1E2326" stroke-width="2" stroke-linecap="round" stroke-linejoin="round" stroke-miterlimit="10" x1="249.574" y1="458.591" x2="249.903" y2="468.85"/>
	</g>
	<g>
		
			<line fill="none" stroke="#FFFFFF" stroke-width="2" stroke-linecap="round" stroke-linejoin="round" stroke-miterlimit="10" x1="483.158" y1="435.046" x2="493.412" y2="434.718"/>
		
			<line fill="none" stroke="#FFFFFF" stroke-width="2" stroke-linecap="round" stroke-linejoin="round" stroke-miterlimit="10" x1="488.118" y1="429.752" x2="488.446" y2="440.011"/>
	</g>
	<g>
		
			<line fill="none" stroke="#FFFFFF" stroke-width="2" stroke-linecap="round" stroke-linejoin="round" stroke-miterlimit="10" x1="658.163" y1="116.313" x2="668.417" y2="115.985"/>
		
			<line fill="none" stroke="#FFFFFF" stroke-width="2" stroke-linecap="round" stroke-linejoin="round" stroke-miterlimit="10" x1="663.123" y1="111.019" x2="663.451" y2="121.278"/>
	</g>
	<g>
		
			<line fill="none" stroke="#1E2326" stroke-width="2" stroke-linecap="round" stroke-linejoin="round" stroke-miterlimit="10" x1="592.297" y1="337.093" x2="602.551" y2="336.765"/>
		
			<line fill="none" stroke="#1E2326" stroke-width="2" stroke-linecap="round" stroke-linejoin="round" stroke-miterlimit="10" x1="597.257" y1="331.799" x2="597.585" y2="342.058"/>
	</g>
	<g>
		
			<line fill="none" stroke="#FFFFFF" stroke-width="2" stroke-linecap="round" stroke-linejoin="round" stroke-miterlimit="10" x1="646.81" y1="386.317" x2="657.064" y2="385.989"/>
		
			<line fill="none" stroke="#FFFFFF" stroke-width="2" stroke-linecap="round" stroke-linejoin="round" stroke-miterlimit="10" x1="651.77" y1="381.023" x2="652.098" y2="391.282"/>
	</g>
	<g>
		
			<line fill="none" stroke="#1E2326" stroke-width="2" stroke-linecap="round" stroke-linejoin="round" stroke-miterlimit="10" x1="548.449" y1="159.945" x2="558.703" y2="159.617"/>
		
			<line fill="none" stroke="#1E2326" stroke-width="2" stroke-linecap="round" stroke-linejoin="round" stroke-miterlimit="10" x1="553.409" y1="154.651" x2="553.737" y2="164.91"/>
	</g>
	<g>
		
			<ellipse transform="matrix(0.8464 -0.5325 0.5325 0.8464 -63.3136 56.8091)" fill="none" stroke="#1E2326" stroke-width="2" stroke-linecap="round" stroke-linejoin="round" stroke-miterlimit="10" cx="66.827" cy="138.165" rx="4.191" ry="4.191"/>
	</g>
	<g>
		
			<ellipse transform="matrix(0.8464 -0.5325 0.5325 0.8464 -151.985 123.6167)" fill="none" stroke="#1E2326" stroke-width="2" stroke-linecap="round" stroke-linejoin="round" stroke-miterlimit="10" cx="138.311" cy="325.292" rx="4.191" ry="4.191"/>
	</g>
	<g>
		<path fill="none" stroke="#FFFFFF" stroke-width="2" stroke-linecap="round" stroke-linejoin="round" stroke-miterlimit="10" d="
			M271.507,486.71c-2.166,1.888-5.487,1.134-6.632-1.495c-0.712-1.636-0.262-3.624,1.085-4.794c2.161-1.878,5.473-1.133,6.623,1.49
			C273.3,483.546,272.853,485.537,271.507,486.71z"/>
	</g>
	<g>
		<path fill="none" stroke="#1E2326" stroke-width="2" stroke-linecap="round" stroke-linejoin="round" stroke-miterlimit="10" d="
			M282.214,449.366c-2.166,1.887-5.487,1.134-6.631-1.495c-0.712-1.636-0.262-3.624,1.085-4.794c2.161-1.878,5.473-1.133,6.623,1.49
			C284.008,446.202,283.561,448.192,282.214,449.366z"/>
	</g>
	<g>
		
			<ellipse transform="matrix(0.8464 -0.5325 0.5325 0.8464 -4.8993 281.6125)" fill="none" stroke="#FFFFFF" stroke-width="2" stroke-linecap="round" stroke-linejoin="round" stroke-miterlimit="10" cx="485.743" cy="149.3" rx="4.191" ry="4.191"/>
	</g>
	<g>
		
			<ellipse transform="matrix(0.8464 -0.5325 0.5325 0.8464 -186.7429 309.7788)" fill="none" stroke="#1E2326" stroke-width="2" stroke-linecap="round" stroke-linejoin="round" stroke-miterlimit="10" cx="443.65" cy="478.621" rx="4.191" ry="4.191"/>
	</g>
	<g>
		
			<ellipse transform="matrix(0.8464 -0.5325 0.5325 0.8464 -71.6822 143.6041)" fill="none" stroke="#FFFFFF" stroke-width="2" stroke-linecap="round" stroke-linejoin="round" stroke-miterlimit="10" cx="213.111" cy="196.07" rx="4.191" ry="4.191"/>
	</g>
	<g>
		
			<ellipse transform="matrix(0.8464 -0.5325 0.5325 0.8464 -18.04 29.4679)" fill="none" stroke="#1E2326" stroke-width="2" stroke-linecap="round" stroke-linejoin="round" stroke-miterlimit="10" cx="42.066" cy="46.008" rx="4.191" ry="4.191"/>
	</g>
	<g>
		
			<ellipse transform="matrix(0.8464 -0.5325 0.5325 0.8464 -32.4041 167.6217)" fill="none" stroke="#FFFFFF" stroke-width="2" stroke-linecap="round" stroke-linejoin="round" stroke-miterlimit="10" cx="274.386" cy="139.986" rx="4.191" ry="4.191"/>
	</g>
	<g>
		
			<ellipse transform="matrix(0.8464 -0.5325 0.5325 0.8464 25.938 355.329)" fill="none" stroke="#FFFFFF" stroke-width="2" stroke-linecap="round" stroke-linejoin="round" stroke-miterlimit="10" cx="628.954" cy="132.699" rx="4.191" ry="4.191"/>
	</g>
	<g>
		
			<ellipse transform="matrix(0.8464 -0.5325 0.5325 0.8464 55.1091 353.6934)" fill="none" stroke="#1E2326" stroke-width="2" stroke-linecap="round" stroke-linejoin="round" stroke-miterlimit="10" cx="640.704" cy="81.312" rx="4.191" ry="4.191"/>
	</g>
	<g>
		
			<ellipse transform="matrix(0.8464 -0.5325 0.5325 0.8464 -128.3786 431.2318)" fill="none" stroke="#FFFFFF" stroke-width="2" stroke-linecap="round" stroke-linejoin="round" stroke-miterlimit="10" cx="683.378" cy="438.168" rx="4.191" ry="4.191"/>
	</g>
	<g>
		
			<ellipse transform="matrix(0.8464 -0.5325 0.5325 0.8464 0.1038 330.1778)" fill="none" stroke="#FFFFFF" stroke-width="2" stroke-linecap="round" stroke-linejoin="round" stroke-miterlimit="10" cx="572.435" cy="164.909" rx="4.191" ry="4.191"/>
	</g>
	<g>
		
			<ellipse transform="matrix(0.8464 -0.5325 0.5325 0.8464 -212.9597 81.8421)" fill="none" stroke="#1E2326" stroke-width="2" stroke-linecap="round" stroke-linejoin="round" stroke-miterlimit="10" cx="35.399" cy="410.1" rx="4.191" ry="4.191"/>
	</g>
	<g>
		
			<ellipse transform="matrix(0.8464 -0.5325 0.5325 0.8464 21.334 134.1432)" fill="none" stroke="#FFFFFF" stroke-width="2" stroke-linecap="round" stroke-linejoin="round" stroke-miterlimit="10" cx="243.217" cy="30.087" rx="4.191" ry="4.191"/>
	</g>
	
		<line fill="none" stroke="#FFFFFF" stroke-width="2" stroke-linecap="round" stroke-linejoin="round" stroke-miterlimit="10" x1="485.368" y1="338.537" x2="494.596" y2="338.537"/>
	
		<line fill="none" stroke="#FFFFFF" stroke-width="2" stroke-linecap="round" stroke-linejoin="round" stroke-miterlimit="10" x1="243.339" y1="437.936" x2="252.567" y2="437.936"/>
	
		<line fill="none" stroke="#FFFFFF" stroke-width="2" stroke-linecap="round" stroke-linejoin="round" stroke-miterlimit="10" x1="444.151" y1="33.817" x2="453.379" y2="33.817"/>
	
		<line fill="none" stroke="#1E2326" stroke-width="2" stroke-linecap="round" stroke-linejoin="round" stroke-miterlimit="10" x1="681.437" y1="138.894" x2="690.665" y2="138.894"/>
	
		<line fill="none" stroke="#FFFFFF" stroke-width="2" stroke-linecap="round" stroke-linejoin="round" stroke-miterlimit="10" x1="258.51" y1="37.336" x2="267.737" y2="37.336"/>
	
		<line fill="none" stroke="#FFFFFF" stroke-width="2" stroke-linecap="round" stroke-linejoin="round" stroke-miterlimit="10" x1="42.065" y1="120.753" x2="51.293" y2="120.753"/>
	
		<line fill="none" stroke="#FFFFFF" stroke-width="2" stroke-linecap="round" stroke-linejoin="round" stroke-miterlimit="10" x1="25.461" y1="369.558" x2="34.689" y2="369.558"/>
	
		<line fill="none" stroke="#FFFFFF" stroke-width="2" stroke-linecap="round" stroke-linejoin="round" stroke-miterlimit="10" x1="137.889" y1="350.879" x2="147.117" y2="350.879"/>
	
		<line fill="none" stroke="#FFFFFF" stroke-width="2" stroke-linecap="round" stroke-linejoin="round" stroke-miterlimit="10" x1="76.748" y1="473.341" x2="85.975" y2="473.341"/>
	
		<line fill="none" stroke="#FFFFFF" stroke-width="2" stroke-linecap="round" stroke-linejoin="round" stroke-miterlimit="10" x1="148.291" y1="207.476" x2="157.518" y2="207.476"/>
</g>
<g id="Layer_12">
	<g>
		<circle opacity="0.2" fill="#202D36" cx="173.53" cy="437.365" r="57.905"/>
		<circle fill="#F2F2F2" stroke="#000000" stroke-width="2" stroke-miterlimit="10" cx="160.724" cy="428.192" r="57.905"/>
		<g>
			<path fill="#EEC145" d="M146.028,454.748c0.986,2.958,4.344,5.378,7.462,5.378h14.599c3.118,0,6.469-2.423,7.446-5.384
				l9.218-27.94c0.977-2.961,0.288-7.456-1.532-9.988l-19.191-26.71c-1.819-2.532-4.797-2.532-6.616,0l-19.188,26.709
				c-1.819,2.532-2.501,7.025-1.515,9.983L146.028,454.748z"/>
			<path fill="none" stroke="#000000" stroke-width="2" stroke-miterlimit="10" d="M146.028,454.748
				c0.986,2.958,4.344,5.378,7.462,5.378h14.599c3.118,0,6.469-2.423,7.446-5.384l9.218-27.94c0.977-2.961,0.288-7.456-1.532-9.988
				l-19.191-26.71c-1.819-2.532-4.797-2.532-6.616,0l-19.188,26.709c-1.819,2.532-2.501,7.025-1.515,9.983L146.028,454.748z"/>
		</g>
		<line fill="none" stroke="#000000" stroke-width="2" stroke-miterlimit="10" x1="160.722" y1="388.58" x2="160.722" y2="423.64"/>
		<ellipse transform="matrix(0.7071 -0.7071 0.7071 0.7071 -253.4252 238.1199)" cx="160.724" cy="424.971" rx="5.51" ry="5.51"/>
		<path fill="#ACB3BA" stroke="#000000" stroke-width="2" stroke-miterlimit="10" d="M179.122,457.305H164.4h-7.354h-14.721
			c-2.03,0-3.681,1.649-3.681,3.683c0,2.032,1.65,3.675,3.681,3.675h36.797c2.03,0,3.675-1.643,3.675-3.675
			C182.797,458.954,181.152,457.305,179.122,457.305z"/>
	</g>
</g>
</svg>
