<?xml version="1.0" encoding="utf-8"?>
<!-- Generator: Adobe Illustrator 16.0.0, SVG Export Plug-In . SVG Version: 6.00 Build 0)  -->
<!DOCTYPE svg PUBLIC "-//W3C//DTD SVG 1.1//EN" "http://www.w3.org/Graphics/SVG/1.1/DTD/svg11.dtd">
<svg version="1.1" id="Layer_1" xmlns="http://www.w3.org/2000/svg" xmlns:xlink="http://www.w3.org/1999/xlink" x="0px" y="0px"
	 width="335.986px" height="235.19px" viewBox="0 0 335.986 235.19" enable-background="new 0 0 335.986 235.19"
	 xml:space="preserve">
<g>
	<g>
		<g>
			<rect x="-0.142" fill="#9CCB8D" width="335.986" height="235.19"/>
		</g>
	</g>
</g>
<g>
	<path fill="#4FA0CB" d="M255.95,114.929c0,49.368-40.019,89.381-89.383,89.381c-49.357,0-89.377-40.013-89.377-89.381
		c0-49.369,40.02-89.382,89.377-89.382C215.932,25.547,255.95,65.56,255.95,114.929z"/>
</g>
<g>
	<circle fill="#4FA0CB" cx="57.493" cy="178.993" r="37.975"/>
</g>
<g>
	<circle fill="#4FA0CB" cx="275.731" cy="54.638" r="37.873"/>
</g>
<g>
	<path fill="#4FA0CB" d="M72.126,39.732c0.705-1.414,1.112-3.006,1.112-4.692c0-5.819-4.719-10.54-10.539-10.54
		c-2.47,0-4.733,0.855-6.53,2.277c-2.137-5.32-7.333-9.078-13.418-9.078c-7.986,0-14.463,6.475-14.463,14.463
		c0,0.096,0.015,0.189,0.017,0.287c-6.801,1.333-11.996,7.246-12.146,14.455c-0.171,8.262,6.348,15.098,14.587,15.352v0.002h0.035
		c0.041,0.003,0.078,0.009,0.119,0.009c0.095,0.003,0.187-0.009,0.28-0.009h7.894c2.458,2.467,5.856,3.992,9.611,3.992
		c3.754,0,7.154-1.525,9.609-3.992h11.31c0.076,0.003,0.15,0.012,0.227,0.012c6.287,0,11.385-5.097,11.385-11.384
		C81.216,45.383,77.313,40.794,72.126,39.732z"/>
</g>
<g>
	<path fill="#4FA0CB" d="M303.769,191.088c0.705-1.414,1.112-3.006,1.112-4.692c0-5.819-4.719-10.54-10.539-10.54
		c-2.47,0-4.733,0.855-6.53,2.277c-2.137-5.32-7.333-9.078-13.418-9.078c-7.986,0-14.463,6.475-14.463,14.463
		c0,0.096,0.015,0.189,0.017,0.287c-6.801,1.333-11.996,7.246-12.146,14.455c-0.171,8.262,6.348,15.098,14.587,15.352v0.002h0.035
		c0.041,0.003,0.078,0.009,0.119,0.009c0.095,0.003,0.187-0.009,0.28-0.009h7.894c2.458,2.467,5.856,3.992,9.611,3.992
		c3.754,0,7.154-1.525,9.609-3.992h11.31c0.076,0.003,0.15,0.012,0.227,0.012c6.287,0,11.385-5.097,11.385-11.384
		C312.858,196.738,308.956,192.149,303.769,191.088z"/>
</g>
<g opacity="0.12">
	<g>
		<rect x="109.89" y="41.062" fill="#534B62" width="125.965" height="158.621"/>
	</g>
	<g>
		<polygon fill="#534B62" points="43.437,117.511 66.895,117.511 66.895,88.183 19.975,88.183 19.975,117.511 32.877,117.511 
			32.877,126.308 		"/>
	</g>
	<g>
		<polygon fill="#534B62" points="276.844,128.469 276.844,157.797 300.302,157.797 310.861,166.594 310.861,157.797 
			323.764,157.797 323.764,128.469 		"/>
	</g>
	<g>
		<path fill="#534B62" d="M94.258,175.259h-5.973v-38.072c0-0.822-0.726-1.494-1.547-1.494H53.891L39.015,151.37v47.031
			c0,0.821,0.618,1.493,1.438,1.493h46.285c0.821,0,1.547-0.672,1.547-1.493v-5.226h5.973c1.648,0,2.986-1.338,2.986-2.987v-11.943
			C97.244,176.596,95.906,175.259,94.258,175.259z"/>
	</g>
	<g>
		<path fill="#534B62" d="M298.32,107.909v-5.226h5.973c1.648,0,2.985-1.338,2.985-2.987V87.753c0-1.649-1.337-2.986-2.985-2.986
			h-5.973V46.694c0-0.822-0.727-1.494-1.548-1.494h-32.846L249.05,60.878v47.031c0,0.821,0.618,1.493,1.439,1.493h46.283
			C297.594,109.402,298.32,108.73,298.32,107.909z"/>
	</g>
	<g>
		<path fill="#534B62" d="M50.843,62.271c0.629,0.604,1.661,0.604,2.291,0l14.016-13.412c0.63-0.604,0.432-1.096-0.44-1.096h-9.198
			V34.226c0-0.874-0.713-1.587-1.586-1.587h-7.872c-0.875,0-1.587,0.713-1.587,1.587v13.538h-9.198c-0.874,0-1.072,0.492-0.44,1.096
			L50.843,62.271z"/>
	</g>
	<g>
		<path fill="#534B62" d="M285.774,182.447c-0.629-0.604-1.661-0.604-2.291,0l-14.016,13.412c-0.63,0.604-0.432,1.096,0.44,1.096
			h9.198v13.537c0,0.875,0.713,1.588,1.586,1.588h7.872c0.875,0,1.587-0.713,1.587-1.588v-13.537h9.198
			c0.874,0,1.072-0.492,0.44-1.096L285.774,182.447z"/>
	</g>
</g>
<g>
	<polygon fill="#FFFFFF" points="86.635,22.011 87.91,25.716 91.012,27.241 87.91,28.769 86.635,32.472 85.357,28.769 
		82.258,27.241 85.357,25.716 	"/>
</g>
<g>
	<polygon fill="#FFFFFF" points="223.168,12.031 224.443,15.736 227.545,17.262 224.443,18.789 223.168,22.492 221.891,18.789 
		218.791,17.262 221.891,15.736 	"/>
</g>
<g>
	<polygon fill="#FFFFFF" points="316.449,82.346 317.725,86.051 320.826,87.576 317.725,89.104 316.449,92.807 315.172,89.104 
		312.072,87.576 315.172,86.051 	"/>
</g>
<g>
	<polygon fill="#FFFFFF" points="245.693,122.035 246.969,125.74 250.07,127.266 246.969,128.793 245.693,132.496 244.416,128.793 
		241.316,127.266 244.416,125.74 	"/>
</g>
<g>
	<polygon fill="#FFFFFF" points="196.828,208.832 198.104,212.537 201.205,214.062 198.104,215.59 196.828,219.293 195.551,215.59 
		192.451,214.062 195.551,212.537 	"/>
</g>
<g>
	<polygon fill="#FFFFFF" points="19.519,134.369 20.794,138.074 23.896,139.6 20.794,141.127 19.519,144.83 18.241,141.127 
		15.142,139.6 18.241,138.074 	"/>
</g>
<g>
	<polygon fill="#FFFFFF" points="60.349,200.406 61.624,204.111 64.726,205.637 61.624,207.164 60.349,210.867 59.071,207.164 
		55.972,205.637 59.071,204.111 	"/>
</g>
<g>
	<rect x="103.588" y="33.562" fill="#F5F5F5" width="125.965" height="158.621"/>
</g>
<g>
	<rect x="103.588" y="33.562" fill="#FFDE3B" width="125.965" height="41.985"/>
</g>
<g>
	<rect x="119.299" y="41.42" fill="#534B62" width="94.543" height="7.561"/>
</g>
<g>
	<rect x="186.569" y="104.708" fill="#DBDEDF" width="31.323" height="6.399"/>
</g>
<g>
	<rect x="119.299" y="85.925" fill="#DBDEDF" width="98.594" height="6.399"/>
</g>
<g>
	<rect x="119.299" y="175.161" fill="#DBDEDF" width="98.594" height="6.399"/>
</g>
<g>
	<rect x="186.569" y="122.994" fill="#DBDEDF" width="31.323" height="6.395"/>
</g>
<g>
	<rect x="194.891" y="139.442" fill="#DBDEDF" width="23.002" height="6.401"/>
</g>
<g>
	<rect x="186.569" y="156.902" fill="#DBDEDF" width="31.323" height="6.391"/>
</g>
<g>
	<path fill="#9CCB8D" d="M171.869,133.48c0-1.365-0.127-2.682-0.309-3.998l-28.308,3.998l15.248-24.185
		c0,0-3.861-4.434-15.248-4.434c-15.81,0-28.622,12.811-28.622,28.618c0,15.806,12.812,28.618,28.622,28.618
		C159.053,162.099,171.869,149.286,171.869,133.48z"/>
</g>
<g>
	<path fill="#534B62" d="M165.895,104.862l-15.25,24.188l28.309-4.003c-0.149-1.041-0.351-2.073-0.607-3.076
		c-0.549-1.76-1.229-3.813-1.712-4.864c-0.062-0.124-0.129-0.257-0.19-0.39c-0.956-1.876-3.026-5.13-4.347-6.576
		C170.719,108.648,165.895,104.862,165.895,104.862z"/>
</g>
<g>
	<polygon fill="#F5F5F5" points="16.673,82.683 16.673,112.011 29.575,112.011 29.575,120.808 40.135,112.011 63.593,112.011 
		63.593,82.683 	"/>
</g>
<g>
	<polygon fill="#F5F5F5" points="320.462,122.969 320.462,152.297 307.56,152.297 307.56,161.094 297,152.297 273.542,152.297 
		273.542,122.969 	"/>
</g>
<g>
	<path fill="#F5F5F5" d="M50.589,130.192h32.848c0.821,0,1.547,0.672,1.547,1.494v61.215c0,0.821-0.726,1.493-1.547,1.493H37.151
		c-0.82,0-1.438-0.672-1.438-1.493V145.87L50.589,130.192z"/>
</g>
<g>
	<path fill="#E6E6E6" d="M49.097,145.87c0.82,0,1.548-0.671,1.548-1.492v-14.186L35.659,145.87H49.097z"/>
</g>
<g>
	<path fill="#534B62" d="M93.942,184.688c0,1.649-1.338,2.987-2.986,2.987H64.082c-1.65,0-2.987-1.338-2.987-2.987v-11.943
		c0-1.649,1.337-2.986,2.987-2.986h26.874c1.648,0,2.986,1.337,2.986,2.986V184.688z"/>
</g>
<g>
	<path fill="#F5F5F5" d="M72.217,175.29h1.291v4.059c0,0.532-0.047,0.939-0.14,1.226c-0.125,0.373-0.354,0.673-0.682,0.899
		c-0.331,0.226-0.765,0.338-1.305,0.338c-0.633,0-1.119-0.178-1.46-0.53c-0.342-0.354-0.514-0.873-0.518-1.559l1.221-0.141
		c0.015,0.367,0.068,0.626,0.162,0.778c0.14,0.23,0.354,0.346,0.639,0.346c0.289,0,0.494-0.083,0.612-0.247
		c0.119-0.165,0.179-0.508,0.179-1.025V175.29z"/>
</g>
<g>
	<path fill="#F5F5F5" d="M74.886,181.704v-6.413h2.077c0.789,0,1.301,0.032,1.54,0.097c0.368,0.096,0.677,0.305,0.924,0.627
		c0.248,0.322,0.372,0.739,0.372,1.248c0,0.396-0.072,0.725-0.216,0.994c-0.143,0.268-0.324,0.479-0.545,0.631
		c-0.22,0.154-0.443,0.255-0.671,0.305c-0.309,0.061-0.756,0.093-1.342,0.093h-0.845v2.419H74.886z M76.181,176.376v1.819h0.709
		c0.509,0,0.852-0.034,1.022-0.1c0.173-0.068,0.307-0.173,0.405-0.315c0.098-0.144,0.146-0.309,0.146-0.499
		c0-0.233-0.067-0.425-0.205-0.578c-0.136-0.151-0.31-0.245-0.52-0.284c-0.155-0.028-0.466-0.043-0.933-0.043H76.181z"/>
</g>
<g>
	<path fill="#F5F5F5" d="M83.844,179.346v-1.081h2.791v2.556c-0.271,0.263-0.664,0.493-1.179,0.693
		c-0.515,0.199-1.037,0.3-1.564,0.3c-0.67,0-1.254-0.143-1.753-0.423c-0.499-0.282-0.873-0.685-1.125-1.208
		c-0.251-0.522-0.376-1.092-0.376-1.708c0-0.669,0.141-1.261,0.42-1.78c0.28-0.519,0.689-0.916,1.229-1.192
		c0.411-0.214,0.923-0.32,1.536-0.32c0.796,0,1.418,0.167,1.866,0.501c0.446,0.334,0.734,0.795,0.863,1.384l-1.287,0.241
		c-0.091-0.315-0.259-0.563-0.509-0.746c-0.248-0.182-0.56-0.273-0.934-0.273c-0.565,0-1.017,0.18-1.351,0.538
		c-0.333,0.358-0.499,0.89-0.499,1.597c0,0.761,0.168,1.332,0.507,1.713c0.338,0.381,0.781,0.569,1.33,0.569
		c0.271,0,0.543-0.053,0.815-0.159s0.507-0.234,0.701-0.387v-0.813H83.844z"/>
</g>
<g>
	<path fill="#F5F5F5" d="M260.625,39.7h32.846c0.821,0,1.548,0.672,1.548,1.494v61.215c0,0.821-0.727,1.493-1.548,1.493h-46.283
		c-0.821,0-1.439-0.672-1.439-1.493V55.378L260.625,39.7z"/>
</g>
<g>
	<path fill="#E6E6E6" d="M259.131,55.378c0.822,0,1.548-0.671,1.548-1.492V39.7l-14.985,15.678H259.131z"/>
</g>
<g>
	<path fill="#534B62" d="M303.977,94.196c0,1.649-1.337,2.987-2.985,2.987h-26.875c-1.648,0-2.985-1.338-2.985-2.987V82.253
		c0-1.649,1.337-2.986,2.985-2.986h26.875c1.648,0,2.985,1.337,2.985,2.986V94.196z"/>
</g>
<g>
	<polygon fill="#F5F5F5" points="281.383,91.21 281.383,85.884 279.479,85.884 279.479,84.798 284.575,84.798 284.575,85.884 
		282.677,85.884 282.677,91.21 	"/>
</g>
<g>
	<polygon fill="#F5F5F5" points="284.76,91.21 286.951,87.865 284.965,84.798 286.479,84.798 287.765,86.859 289.024,84.798 
		290.525,84.798 288.529,87.912 290.722,91.21 289.16,91.21 287.738,88.993 286.312,91.21 	"/>
</g>
<g>
	<polygon fill="#F5F5F5" points="292.83,91.21 292.83,85.884 290.926,85.884 290.926,84.798 296.022,84.798 296.022,85.884 
		294.123,85.884 294.123,91.21 	"/>
</g>
<g>
	<g>
		<g>
			<g>
				<path fill="#FFDE3B" d="M143.037,113.646c-1.005,0-1.853-0.772-1.94-1.789c-0.085-1.072,0.71-2.012,1.784-2.1
					c0.746-0.062,1.498-0.093,2.258-0.093c1.074,0,1.946,0.874,1.946,1.948c0,1.075-0.872,1.946-1.946,1.946
					c-0.652,0-1.302,0.025-1.939,0.079C143.145,113.643,143.09,113.646,143.037,113.646z"/>
			</g>
		</g>
	</g>
	<g>
		<g>
			<g>
				<path fill="#FFDE3B" d="M119.931,138.769c-1.074,0-1.946-0.872-1.946-1.949c0-10.58,6.216-20.274,15.839-24.691
					c0.975-0.448,2.131-0.021,2.583,0.959c0.447,0.977,0.019,2.132-0.96,2.58c-8.241,3.784-13.566,12.088-13.566,21.152
					C121.88,137.896,121.007,138.769,119.931,138.769z"/>
			</g>
		</g>
	</g>
</g>
<g>
	<path fill="#4FA0CB" d="M32.162,88.641v7.238h7.236C38.899,92.123,35.917,89.141,32.162,88.641z"/>
</g>
<g>
	<path fill="#534B62" d="M39.545,98.605h-9.09c-0.555,0-1.005-0.45-1.005-1.005v-9.093c-4.081,0.524-7.254,4.201-7.254,8.645
		c0,4.801,3.906,8.707,8.708,8.707C35.268,105.859,39.004,102.629,39.545,98.605z"/>
</g>
<g>
	<rect x="43.165" y="89.88" fill="#DBDEDF" width="14.901" height="3.788"/>
</g>
<g>
	<rect x="43.165" y="100.703" fill="#DBDEDF" width="14.901" height="3.785"/>
</g>
<g>
	<rect x="300.035" y="130.093" fill="#DBDEDF" width="14.901" height="3.788"/>
</g>
<g>
	<rect x="300.035" y="140.916" fill="#DBDEDF" width="14.901" height="3.785"/>
</g>
<g>
	<path fill="#534B62" d="M286.256,128.857c-4.083,0.705-7.19,4.255-7.19,8.539c0,4.285,3.107,7.834,7.19,8.539V128.857z"/>
</g>
<g>
	<path fill="#4FA0CB" d="M289.055,145.936c4.083-0.705,7.19-4.255,7.19-8.539c0-4.285-3.107-7.834-7.19-8.539V145.936z"/>
</g>
<g>
	<path fill="#FFFFFF" d="M63.407,44.264h-9.198V30.726c0-0.874-0.713-1.587-1.586-1.587h-7.872c-0.875,0-1.587,0.713-1.587,1.587
		v13.538h-9.198c-0.874,0-1.072,0.492-0.44,1.096l14.016,13.412c0.629,0.604,1.661,0.604,2.291,0l14.016-13.412
		C64.478,44.756,64.279,44.264,63.407,44.264z"/>
</g>
<g>
	<path fill="#FFFFFF" d="M265.606,193.455h9.198v13.537c0,0.875,0.713,1.588,1.586,1.588h7.872c0.875,0,1.587-0.713,1.587-1.588
		v-13.537h9.198c0.874,0,1.072-0.492,0.44-1.096l-14.016-13.412c-0.629-0.604-1.661-0.604-2.291,0l-14.016,13.412
		C264.536,192.963,264.734,193.455,265.606,193.455z"/>
</g>
<g>
	<path fill="#606060" d="M146.988,57.251c0,0,0.647-0.108,1.502-0.108s1.502,0.108,1.502,0.108v8.494c0,0-0.634,0.109-1.488,0.109
		c-0.923,0-1.516-0.109-1.516-0.109v-3.339h-2.122v3.339c0,0-0.661,0.109-1.502,0.109c-0.909,0-1.502-0.109-1.502-0.109v-8.494
		c0,0,0.634-0.108,1.488-0.108c0.868,0,1.516,0.108,1.516,0.108v3.122h2.122V57.251z"/>
	<path fill="#606060" d="M158.565,57.143c0,0,0.138,0.436,0.138,1.077c0,0.616-0.138,1.076-0.138,1.076h-2.301v6.449
		c0,0-0.662,0.109-1.502,0.109c-0.91,0-1.502-0.109-1.502-0.109v-6.449h-2.37c0,0-0.138-0.436-0.138-1.053
		c0-0.678,0.138-1.101,0.138-1.101H158.565z"/>
	<path fill="#606060" d="M166.726,57.143c0,0,0.138,0.436,0.138,1.077c0,0.616-0.138,1.076-0.138,1.076h-2.301v6.449
		c0,0-0.662,0.109-1.502,0.109c-0.91,0-1.502-0.109-1.502-0.109v-6.449h-2.37c0,0-0.138-0.436-0.138-1.053
		c0-0.678,0.138-1.101,0.138-1.101H166.726z"/>
	<path fill="#606060" d="M170.614,65.745c0,0-0.579,0.109-1.502,0.109s-1.502-0.109-1.502-0.109v-8.603h4.037
		c2.273,0,3.555,0.956,3.555,2.88s-1.281,2.892-3.555,2.892h-1.033V65.745z M171.193,60.979c0.564,0,0.923-0.291,0.923-0.956
		c0-0.678-0.358-0.944-0.923-0.944h-0.579v1.9H171.193z"/>
	<path fill="#606060" d="M178.762,61.934c0,0-0.51,0.098-1.42,0.098c-0.909,0-1.419-0.098-1.419-0.098v-2.347
		c0,0,0.496-0.097,1.419-0.097c0.91,0,1.42,0.097,1.42,0.097V61.934z M178.762,65.758c0,0-0.51,0.097-1.42,0.097
		c-0.909,0-1.419-0.097-1.419-0.097V63.41c0,0,0.496-0.097,1.419-0.097c0.91,0,1.42,0.097,1.42,0.097V65.758z"/>
	<path fill="#606060" d="M184.054,56.889c0,0,0.647-0.109,1.461-0.109c0.84,0,1.487,0.109,1.487,0.109l-4.588,9.426
		c0,0-0.647,0.108-1.461,0.108c-0.84,0-1.487-0.108-1.487-0.108L184.054,56.889z"/>
	<path fill="#606060" d="M188.864,56.889c0,0,0.647-0.109,1.461-0.109c0.84,0,1.487,0.109,1.487,0.109l-4.588,9.426
		c0,0-0.647,0.108-1.461,0.108c-0.84,0-1.487-0.108-1.487-0.108L188.864,56.889z"/>
</g>
</svg>
