<?xml version="1.0" encoding="utf-8"?>
<!-- Generator: Adobe Illustrator 16.0.0, SVG Export Plug-In . SVG Version: 6.00 Build 0)  -->
<!DOCTYPE svg PUBLIC "-//W3C//DTD SVG 1.1//EN" "http://www.w3.org/Graphics/SVG/1.1/DTD/svg11.dtd">
<svg version="1.1" id="Layer_1" xmlns="http://www.w3.org/2000/svg" xmlns:xlink="http://www.w3.org/1999/xlink" x="0px" y="0px"
	 width="1400px" height="980px" viewBox="0 0 1400 980" enable-background="new 0 0 1400 980" xml:space="preserve">
<g>
	<g>
		<g>
			<rect fill="#FFFFFF" width="1400" height="980"/>
		</g>
	</g>
	<g>
		<circle fill="#F6F7F7" cx="1120.9" cy="205.4" r="77.5"/>
	</g>
	<g>
		<rect x="895.5" y="461.1" fill="#FF9C8B" width="265.4" height="15"/>
	</g>
	<g>
		<g>
			<g>
				<rect x="527.9" y="188.6" fill="#939598" width="316.2" height="69.2"/>
				<path d="M844.1,260.1H527.9c-1.3,0-2.3-1-2.3-2.3v-69.2c0-1.3,1-2.3,2.3-2.3h316.2c1.3,0,2.3,1,2.3,2.3v69.2
					C846.4,259.1,845.4,260.1,844.1,260.1z M530.2,255.4h311.6v-64.5H530.2V255.4z"/>
			</g>
			<g>
				<rect x="527.9" y="697.5" fill="#939598" width="316.2" height="84"/>
				<path d="M844.1,783.9H527.9c-1.3,0-2.3-1-2.3-2.3v-84c0-1.3,1-2.3,2.3-2.3h316.2c1.3,0,2.3,1,2.3,2.3v84
					C846.4,782.8,845.4,783.9,844.1,783.9z M530.2,779.2h311.6v-79.3H530.2V779.2z"/>
			</g>
			<g>
				<rect x="527.9" y="257.8" fill="#DDD6FF" width="316.2" height="439.7"/>
				<path d="M844.1,699.9H527.9c-1.3,0-2.3-1-2.3-2.3V257.8c0-1.3,1-2.3,2.3-2.3h316.2c1.3,0,2.3,1,2.3,2.3v439.7
					C846.4,698.8,845.4,699.9,844.1,699.9z M530.2,695.2h311.6V260.1H530.2V695.2z"/>
			</g>
		</g>
		<g>
			<path d="M663.2,741.9H559.4c-1.3,0-2.3-1-2.3-2.3c0-1.3,1-2.3,2.3-2.3h103.8c1.3,0,2.3,1,2.3,2.3
				C665.5,740.8,664.5,741.9,663.2,741.9z"/>
		</g>
		<g>
			<path d="M812.5,741.9H708.8c-1.3,0-2.3-1-2.3-2.3c0-1.3,1-2.3,2.3-2.3h103.8c1.3,0,2.3,1,2.3,2.3
				C814.9,740.8,813.8,741.9,812.5,741.9z"/>
		</g>
		<g>
			<path fill="#FFFFFF" d="M780.4,383.2c0,52.2-42.3,94.4-94.4,94.4c-52.2,0-94.4-42.3-94.4-94.4c0-52.2,42.3-94.4,94.4-94.4
				C738.1,288.8,780.4,331.1,780.4,383.2z"/>
			<path d="M686,480c-53.4,0-96.8-43.4-96.8-96.8c0-53.4,43.4-96.8,96.8-96.8c53.4,0,96.8,43.4,96.8,96.8
				C782.7,436.6,739.3,480,686,480z M686,291.1c-50.8,0-92.1,41.3-92.1,92.1c0,50.8,41.3,92.1,92.1,92.1c50.8,0,92.1-41.3,92.1-92.1
				C778.1,332.4,736.8,291.1,686,291.1z"/>
		</g>
		<g>
			<g>
				<path fill="#FFE7AD" d="M704,361.1c0,21.1-17.1,38.2-38.2,38.2c-21.1,0-38.2-17.1-38.2-38.2c0-21.1,17.1-38.2,38.2-38.2
					C686.9,322.8,704,340,704,361.1z"/>
				<path d="M665.8,401.7c-22.4,0-40.6-18.2-40.6-40.6c0-22.4,18.2-40.6,40.6-40.6c22.4,0,40.6,18.2,40.6,40.6
					C706.3,383.5,688.1,401.7,665.8,401.7z M665.8,325.2c-19.8,0-35.9,16.1-35.9,35.9c0,19.8,16.1,35.9,35.9,35.9
					c19.8,0,35.9-16.1,35.9-35.9C701.7,341.3,685.6,325.2,665.8,325.2z"/>
			</g>
			<g>
				<path d="M710.7,408.3c-0.6,0-1.2-0.2-1.6-0.7l-17.8-17.8c-0.9-0.9-0.9-2.4,0-3.3c0.9-0.9,2.4-0.9,3.3,0l17.8,17.9
					c0.9,0.9,0.9,2.4,0,3.3C711.9,408.1,711.3,408.3,710.7,408.3z"/>
			</g>
			<g>
				<polygon fill="#939598" points="751.1,432 736.7,446.5 703.2,413 717.7,398.6 				"/>
				<path d="M736.7,448.8c-0.6,0-1.2-0.2-1.6-0.7l-33.5-33.5c-0.9-0.9-0.9-2.4,0-3.3l14.4-14.4c0.9-0.9,2.4-0.9,3.3,0l33.5,33.5
					c0.4,0.4,0.7,1,0.7,1.6c0,0.6-0.2,1.2-0.7,1.6l-14.4,14.4C737.9,448.6,737.3,448.8,736.7,448.8z M706.5,413l30.2,30.2l11.1-11.1
					l-30.2-30.2L706.5,413z"/>
			</g>
		</g>
		<g>
			<path fill="#FFFFFF" d="M823.2,543.3c0,19.4-15.7,35.1-35.1,35.1H583.9c-19.4,0-35.1-15.7-35.1-35.1l0,0
				c0-19.4,15.7-35.1,35.1-35.1h204.2C807.5,508.1,823.2,523.8,823.2,543.3L823.2,543.3z"/>
			<path d="M788.1,580.7H583.9c-20.7,0-37.5-16.8-37.5-37.5c0-20.7,16.8-37.5,37.5-37.5h204.2c20.7,0,37.5,16.8,37.5,37.5
				C825.6,563.9,808.8,580.7,788.1,580.7z M583.9,510.5c-18.1,0-32.8,14.7-32.8,32.8c0,18.1,14.7,32.8,32.8,32.8h204.2
				c18.1,0,32.8-14.7,32.8-32.8c0-18.1-14.7-32.8-32.8-32.8H583.9z"/>
		</g>
		<g>
			<path d="M577.7,569.3c-1.3,0-2.3-1-2.3-2.3v-47.5c0-1.3,1-2.3,2.3-2.3s2.3,1,2.3,2.3V567C580,568.3,579,569.3,577.7,569.3z"/>
		</g>
		<g>
			<rect x="561.8" y="609.7" fill="#CBADFF" width="230.2" height="53.8"/>
		</g>
		<g>
			<path d="M807.9,612H561.8c-1.3,0-2.3-1-2.3-2.3c0-1.3,1-2.3,2.3-2.3h246.1c1.3,0,2.3,1,2.3,2.3C810.2,611,809.2,612,807.9,612z"
				/>
		</g>
		<g>
			<path d="M733.2,225.5h-94.4c-1.3,0-2.3-1-2.3-2.3s1-2.3,2.3-2.3h94.4c1.3,0,2.3,1,2.3,2.3S734.5,225.5,733.2,225.5z"/>
		</g>
		<g>
			<path fill="#FFFFFF" d="M778.8,223.2c0,5.1-4.2,9.3-9.3,9.3c-5.1,0-9.3-4.2-9.3-9.3c0-5.2,4.2-9.3,9.3-9.3
				C774.6,213.9,778.8,218,778.8,223.2z"/>
			<path d="M769.4,234.9c-6.4,0-11.7-5.2-11.7-11.7c0-6.4,5.2-11.7,11.7-11.7c6.4,0,11.7,5.2,11.7,11.7
				C781.1,229.6,775.9,234.9,769.4,234.9z M769.4,216.2c-3.9,0-7,3.1-7,7s3.1,7,7,7c3.9,0,7-3.1,7-7S773.3,216.2,769.4,216.2z"/>
		</g>
		<g>
			<path fill="#FFFFFF" d="M813,223.2c0,5.1-4.2,9.3-9.3,9.3c-5.2,0-9.3-4.2-9.3-9.3c0-5.2,4.2-9.3,9.3-9.3
				C808.8,213.9,813,218,813,223.2z"/>
			<path d="M803.6,234.9c-6.4,0-11.7-5.2-11.7-11.7c0-6.4,5.2-11.7,11.7-11.7c6.4,0,11.7,5.2,11.7,11.7
				C815.3,229.6,810.1,234.9,803.6,234.9z M803.6,216.2c-3.9,0-7,3.1-7,7s3.1,7,7,7c3.9,0,7-3.1,7-7S807.5,216.2,803.6,216.2z"/>
		</g>
	</g>
	<g>
		<path fill="#FF9C8B" d="M1221,198.1h-69.2c-1.3,0-2.3-1-2.3-2.3s1-2.3,2.3-2.3h69.2c1.3,0,2.3,1,2.3,2.3S1222.3,198.1,1221,198.1z
			"/>
	</g>
	<g>
		<path fill="#FF9C8B" d="M1140,169.5c-0.6,0-1.2-0.2-1.6-0.7c-0.9-0.9-0.9-2.4,0-3.3l48.9-48.9c0.9-0.9,2.4-0.9,3.3,0
			c0.9,0.9,0.9,2.4,0,3.3l-48.9,48.9C1141.1,169.3,1140.5,169.5,1140,169.5z"/>
	</g>
	<g>
		<path d="M1111.4,157.7c-1.3,0-2.3-1-2.3-2.3V86.1c0-1.3,1-2.3,2.3-2.3s2.3,1,2.3,2.3v69.2C1113.7,156.6,1112.6,157.7,1111.4,157.7
			z"/>
	</g>
	<g>
		<path d="M1082.8,169.5c-0.6,0-1.2-0.2-1.7-0.7l-48.9-48.9c-0.9-0.9-0.9-2.4,0-3.3c0.9-0.9,2.4-0.9,3.3,0l48.9,48.9
			c0.9,0.9,0.9,2.4,0,3.3C1083.9,169.3,1083.3,169.5,1082.8,169.5z"/>
	</g>
	<g>
		<path d="M1070.9,198.1h-69.2c-1.3,0-2.3-1-2.3-2.3s1-2.3,2.3-2.3h69.2c1.3,0,2.3,1,2.3,2.3S1072.2,198.1,1070.9,198.1z"/>
	</g>
	<g>
		<path d="M1033.8,275.7c-0.6,0-1.2-0.2-1.7-0.7c-0.9-0.9-0.9-2.4,0-3.3l48.9-48.9c0.9-0.9,2.4-0.9,3.3,0c0.9,0.9,0.9,2.4,0,3.3
			l-48.9,48.9C1035,275.5,1034.4,275.7,1033.8,275.7z"/>
	</g>
	<g>
		<path d="M1111.4,307.8c-1.3,0-2.3-1-2.3-2.3v-69.2c0-1.3,1-2.3,2.3-2.3s2.3,1,2.3,2.3v69.2
			C1113.7,306.8,1112.6,307.8,1111.4,307.8z"/>
	</g>
	<g>
		<path fill="#FF9C8B" d="M1188.9,275.7c-0.6,0-1.2-0.2-1.7-0.7l-48.9-48.9c-0.9-0.9-0.9-2.4,0-3.3c0.9-0.9,2.4-0.9,3.3,0l48.9,48.9
			c0.9,0.9,0.9,2.4,0,3.3C1190.1,275.4,1189.5,275.7,1188.9,275.7z"/>
	</g>
	<g>
		<path d="M1327.2,478.4H895.5c-1.3,0-2.3-1-2.3-2.3V344.8c0-1.3,1-2.3,2.3-2.3h431.6c1.3,0,2.3,1,2.3,2.3v131.3
			C1329.5,477.4,1328.5,478.4,1327.2,478.4z M897.9,473.8h427V347.1h-427V473.8z"/>
	</g>
	<g>
		<g>
			<polygon points="930.3,376.2 925.9,376.2 925.9,444.8 966,444.8 966,440.7 930.3,440.7 			"/>
		</g>
		<g>
			<path d="M997.8,374.7c-10.1,0-17.9,3.6-23.3,10.8c-4.7,6.4-7.2,14.9-7.2,25.1c0,10.4,2.4,18.9,7.2,25.1
				c5.3,7,13.1,10.6,23.3,10.6c10.2,0,18-3.5,23.4-10.6c4.7-6.3,7.2-14.7,7.2-25.1c0-10.3-2.4-18.8-7.2-25.2
				C1015.9,378.2,1008,374.7,997.8,374.7z M997.8,442.4c-8.8,0-15.5-3.2-20-9.5c-4-5.6-6-13.1-6-22.3c0-9.2,2-16.7,6-22.3
				c4.6-6.4,11.3-9.6,20-9.6s15.4,3.2,20,9.6c4,5.6,6.1,13.1,6.1,22.3c0,9.2-2,16.7-6,22.3C1013.4,439.1,1006.7,442.4,997.8,442.4z"
				/>
		</g>
		<g>
			<path d="M1062.2,376.2h-4.4l-26.5,68.7h4.3l8.8-23h30.7l8.6,22.6l0.1,0.4h4.3l-25.9-68.3L1062.2,376.2z M1073.6,417.8h-27.5
				L1060,382L1073.6,417.8z"/>
		</g>
		<g>
			<path d="M1131.7,379.5c-4.6-2.2-12-3.3-21.9-3.3h-16.1v68.7h16.1c9.7,0,17.1-1.1,21.9-3.3c10.1-4.8,15.3-15.2,15.3-30.9
				C1147,395,1141.8,384.6,1131.7,379.5z M1110.5,440.8H1098v-60.6h12.5c2.7,0,5.1,0.1,7.2,0.2c2,0.1,3.8,0.3,5.2,0.6
				c4.5,0.9,8.2,2.5,10.9,4.9c5.8,5.2,8.7,13.5,8.7,24.6c0,13.7-4.1,22.7-12.2,27C1126.1,439.7,1119.5,440.8,1110.5,440.8z"/>
		</g>
		<g>
			<rect x="1158.8" y="376.2" width="4.3" height="68.7"/>
		</g>
		<g>
			<polygon points="1223.3,437 1182.1,376.4 1181.9,376.2 1177.8,376.2 1177.8,444.8 1182.1,444.8 1182.1,384.1 1223.4,444.6 
				1223.6,444.8 1227.6,444.8 1227.6,376.2 1223.3,376.2 			"/>
		</g>
		<g>
			<path d="M1296.7,411.9l-0.1-0.5h-26.4v4h22.3v2.3c0,7.6-2.1,13.6-6.1,17.9c-4.2,4.5-10.1,6.8-17.5,6.8c-8.5,0-15-3.3-19.5-9.8
				c-3.9-5.6-5.9-13-5.9-22c0-9,2-16.5,5.9-22.1c4.5-6.5,11.1-9.8,19.5-9.8c11.8,0,18.9,4.7,21.9,14.5l0.2,0.7l4-1.9l-0.2-0.5
				c-1.7-5.6-5.1-9.9-9.9-12.8c-4.5-2.6-9.8-3.9-16-3.9c-10,0-17.7,3.7-22.9,10.9c-4.6,6.3-7,14.7-7,24.9c0,10.2,2.4,18.5,7.1,24.9
				c5.2,7.1,12.9,10.7,22.8,10.7c4.5,0,8.8-0.8,12.8-2.5c10-4.3,15.1-13.8,15.1-28.3v-1.7C1296.8,413.1,1296.8,412.5,1296.7,411.9z"
				/>
		</g>
	</g>
	<g>
		<g>
			<path fill="#F1F2F2" d="M314.4,246.5h73.5c0-43.5-18-82.8-47-110.8c-14.6,10.1-30.6,18.2-47.8,24
				C306.7,185.6,314.4,215.2,314.4,246.5z"/>
			<path d="M387.8,248.9h-73.5c-1.3,0-2.3-1-2.3-2.3c0-30.2-7.1-59.1-21-85.8c-0.3-0.6-0.4-1.3-0.1-2c0.3-0.6,0.8-1.1,1.4-1.3
				c16.8-5.6,32.6-13.6,47.2-23.7c0.9-0.6,2.2-0.5,3,0.2c30.7,29.8,47.7,69.8,47.7,112.5C390.2,247.8,389.1,248.9,387.8,248.9z
				 M316.7,244.2h68.8c-0.6-40-16.5-77.3-44.9-105.5c-13.7,9.3-28.5,16.8-44.2,22.3C309.5,187,316.3,215,316.7,244.2z"/>
		</g>
		<g>
			<path fill="#FFFFFF" d="M293.1,333.4c17.1,5.7,33.2,13.8,47.8,23.9c29-28.1,47-67.3,47-110.8h-73.5
				C314.4,277.9,306.7,307.4,293.1,333.4z"/>
			<path d="M340.9,359.7c-0.5,0-0.9-0.1-1.3-0.4c-14.5-10.1-30.4-18-47.2-23.6c-0.6-0.2-1.2-0.7-1.4-1.3c-0.3-0.6-0.2-1.3,0.1-2
				c13.9-26.7,21-55.6,21-85.8c0-1.3,1-2.3,2.3-2.3h73.5c1.3,0,2.3,1,2.3,2.3c0,42.8-16.9,82.7-47.7,112.5
				C342.1,359.5,341.5,359.7,340.9,359.7z M296.4,332.1c15.7,5.5,30.5,13,44.2,22.3c28.4-28.2,44.3-65.5,44.9-105.5h-68.8
				C316.3,278.1,309.5,306.1,296.4,332.1z"/>
		</g>
		<g>
			<path fill="#FFFFFF" d="M293.1,159.7c17.2-5.7,33.2-13.8,47.8-24c-27.7-26.8-65.4-43.4-107-43.5
				C258.7,109.5,279.1,132.7,293.1,159.7z"/>
			<path d="M293.1,162c-0.8,0-1.7-0.5-2.1-1.3c-13.8-26.4-34-49.5-58.5-66.6c-0.8-0.6-1.2-1.6-0.9-2.6c0.3-1,1.2-1.6,2.2-1.6
				c0,0,0,0,0,0c40.7,0.1,79.3,15.8,108.6,44.2c0.5,0.5,0.8,1.2,0.7,1.9c-0.1,0.7-0.4,1.3-1,1.7c-14.9,10.3-31.1,18.5-48.3,24.3
				C293.6,161.9,293.4,162,293.1,162z M241.3,94.7c21.8,16.6,40,38,52.9,62.1c15.2-5.3,29.6-12.4,42.9-21.4
				C310.8,110.8,277.1,96.5,241.3,94.7z"/>
		</g>
		<g>
			<path fill="#F1F2F2" d="M152.6,246.5H79.1c0,43.5,18,82.8,47,110.8c14.6-10.1,30.6-18.2,47.7-23.9
				C160.3,307.4,152.6,277.9,152.6,246.5z"/>
			<path d="M126.1,359.7c-0.6,0-1.2-0.2-1.6-0.7c-30.7-29.8-47.7-69.7-47.7-112.5c0-1.3,1-2.3,2.3-2.3h73.5c1.3,0,2.3,1,2.3,2.3
				c0,30.2,7.1,59.1,21,85.8c0.3,0.6,0.4,1.3,0.1,2c-0.3,0.6-0.8,1.1-1.4,1.3c-16.8,5.6-32.7,13.6-47.2,23.6
				C127,359.6,126.5,359.7,126.1,359.7z M81.5,248.9c0.6,40,16.5,77.3,44.9,105.5c13.7-9.3,28.5-16.8,44.2-22.3
				c-13.1-26-19.9-54-20.3-83.2H81.5z"/>
		</g>
		<g>
			<path fill="#FFFFFF" d="M173.8,159.7c-17.2-5.7-33.2-13.8-47.7-24c-29,28.1-47,67.3-47,110.8h73.5
				C152.6,215.2,160.3,185.6,173.8,159.7z"/>
			<path d="M152.6,248.9H79.1c-1.3,0-2.3-1-2.3-2.3c0-42.8,16.9-82.7,47.7-112.5c0.8-0.8,2-0.9,3-0.2c14.5,10.1,30.4,18.1,47.2,23.7
				c0.6,0.2,1.2,0.7,1.4,1.3c0.3,0.6,0.2,1.3-0.1,2c-13.9,26.7-21,55.6-21,85.8C154.9,247.8,153.9,248.9,152.6,248.9z M81.5,244.2
				h68.8c0.3-29.2,7.2-57.2,20.3-83.2c-15.7-5.5-30.5-13-44.2-22.3C97.9,166.9,82.1,204.2,81.5,244.2z"/>
		</g>
		<g>
			<path fill="#FFFFFF" d="M152.6,246.5c0,31.3,7.7,60.9,21.2,86.9c18.7-6.3,38.8-9.7,59.6-9.7v-77.2H152.6z"/>
			<path d="M173.8,335.7c-0.8,0-1.7-0.5-2.1-1.3c-14.3-27.4-21.5-57-21.5-88c0-1.3,1-2.3,2.3-2.3h80.9c1.3,0,2.3,1,2.3,2.3v77.2
				c0,1.3-1,2.3-2.3,2.3c-20,0-39.9,3.2-58.9,9.6C174.3,335.7,174.1,335.7,173.8,335.7z M154.9,248.9c0.3,28.7,7.1,56.2,20.1,81.7
				c18.2-5.9,37.1-9,56.1-9.2v-72.5H154.9z"/>
		</g>
		<g>
			<path fill="#F1F2F2" d="M233.5,169.3c-20.9,0-40.9-3.4-59.6-9.7c-13.6,26-21.2,55.5-21.2,86.9h80.9V169.3z"/>
			<path d="M233.5,248.9h-80.9c-1.3,0-2.3-1-2.3-2.3c0-31,7.2-60.6,21.5-88c0.5-1,1.7-1.5,2.8-1.1c19.1,6.4,38.9,9.6,58.9,9.6
				c1.3,0,2.3,1,2.3,2.3v77.2C235.8,247.8,234.8,248.9,233.5,248.9z M154.9,244.2h76.2v-72.5c-19.1-0.2-37.9-3.3-56.1-9.2
				C162,188,155.3,215.5,154.9,244.2z"/>
		</g>
		<g>
			<path fill="#FFFFFF" d="M233.5,246.5h80.9c0-31.4-7.7-60.9-21.2-86.9c-18.7,6.2-38.8,9.7-59.6,9.7V246.5z"/>
			<path d="M314.4,248.9h-80.9c-1.3,0-2.3-1-2.3-2.3v-77.2c0-1.3,1-2.3,2.3-2.3c20,0,39.8-3.2,58.9-9.6c1.1-0.4,2.3,0.1,2.8,1.1
				c14.3,27.4,21.5,57,21.5,88C316.7,247.8,315.7,248.9,314.4,248.9z M235.8,244.2H312c-0.3-28.7-7.1-56.2-20.1-81.7
				c-18.2,5.9-37.1,8.9-56.1,9.2V244.2z"/>
		</g>
		<g>
			<path fill="#F1F2F2" d="M233.5,323.7c20.9,0,40.9,3.4,59.6,9.7c13.6-26,21.3-55.5,21.3-86.9h-80.9V323.7z"/>
			<path d="M293.1,335.7c-0.2,0-0.5,0-0.7-0.1c-19.1-6.4-38.9-9.6-58.9-9.6c-1.3,0-2.3-1-2.3-2.3v-77.2c0-1.3,1-2.3,2.3-2.3h80.9
				c1.3,0,2.3,1,2.3,2.3c0,31-7.2,60.6-21.5,88C294.8,335.3,294,335.7,293.1,335.7z M235.8,321.4c19.1,0.2,37.9,3.3,56.1,9.2
				c13-25.5,19.7-53,20.1-81.7h-76.2V321.4z"/>
		</g>
		<g>
			<path fill="#F1F2F2" d="M233,92.2c-41.6,0.1-79.3,16.7-107,43.5c14.6,10.1,30.6,18.2,47.7,24C187.9,132.7,208.3,109.5,233,92.2z"
				/>
			<path d="M173.8,162c-0.2,0-0.5,0-0.7-0.1c-17.2-5.7-33.5-13.9-48.3-24.3c-0.6-0.4-0.9-1-1-1.7c-0.1-0.7,0.2-1.4,0.7-1.9
				C153.7,105.6,192.3,90,233,89.8c0,0,0,0,0,0c1,0,1.9,0.7,2.2,1.6c0.3,1-0.1,2-0.9,2.6c-24.5,17.2-44.7,40.2-58.5,66.6
				C175.5,161.5,174.7,162,173.8,162z M129.8,135.4c13.3,9,27.7,16.1,42.9,21.4c12.9-24.1,31.1-45.5,52.9-62.1
				C189.8,96.5,156.1,110.8,129.8,135.4z"/>
		</g>
		<g>
			<path fill="#FFFFFF" d="M233.9,92.2c-0.1-0.1-0.3-0.2-0.4-0.3c-0.1,0.1-0.3,0.2-0.4,0.3c0.1,0,0.3,0,0.4,0
				C233.6,92.2,233.8,92.2,233.9,92.2z"/>
			<path d="M233.9,94.5c0,0-0.3,0-0.3,0l-0.2-1.5l-0.2,0.3l-0.1,1.2c-1,0-1.9-0.6-2.2-1.6c-0.3-1,0-2,0.8-2.6c0,0,0.5-0.3,0.5-0.4
				c0.8-0.5,1.8-0.5,2.6,0c0,0,0.5,0.3,0.5,0.3c0.8,0.6,1.2,1.6,0.9,2.6C235.8,93.8,234.9,94.5,233.9,94.5z"/>
		</g>
		<g>
			<path fill="#FFFFFF" d="M173.8,159.7c18.7,6.2,38.8,9.7,59.6,9.7V92.2c-0.1,0-0.3,0-0.4,0C208.3,109.5,187.9,132.7,173.8,159.7z"
				/>
			<path d="M233.5,171.7c-20.5,0-40.8-3.3-60.4-9.8c-0.6-0.2-1.2-0.7-1.4-1.3c-0.3-0.6-0.2-1.3,0.1-2c14.1-27.1,34.8-50.7,59.9-68.3
				c1.5-1,4.1,0.1,4.1,1.9v77.2C235.8,170.6,234.8,171.7,233.5,171.7z M177.2,158.3c17.5,5.6,35.6,8.5,53.9,8.7V96.4
				C208.8,112.8,190.3,134,177.2,158.3z"/>
		</g>
		<g>
			<path fill="#F1F2F2" d="M233.5,169.3c20.9,0,40.9-3.4,59.6-9.7c-14.1-27-34.4-50.1-59.2-67.5c-0.1,0-0.3,0-0.4,0V169.3z"/>
			<path d="M233.5,171.7c-1.3,0-2.3-1-2.3-2.3V92.2c0-1.3,1-2.3,2.3-2.3c0.5,0,1.4,0.2,1.8,0.4c25.1,17.6,45.8,41.2,59.9,68.3
				c0.3,0.6,0.4,1.3,0.1,2c-0.3,0.6-0.8,1.1-1.4,1.3C274.3,168.4,254,171.7,233.5,171.7z M235.8,96.4V167c18.3-0.2,36.4-3.2,54-8.7
				C276.7,134,258.1,112.8,235.8,96.4z"/>
		</g>
		<g>
			<path fill="#FFFFFF" d="M233.9,400.9c41.6-0.1,79.3-16.7,107-43.5c-14.6-10.1-30.6-18.2-47.8-23.9
				C279.1,360.4,258.7,383.5,233.9,400.9z"/>
			<path d="M233.9,403.2c-1,0-1.9-0.7-2.2-1.6c-0.3-1,0.1-2,0.9-2.6c24.5-17.2,44.7-40.2,58.5-66.6c0.5-1,1.7-1.5,2.8-1.1
				c17.2,5.7,33.5,13.9,48.4,24.2c0.6,0.4,0.9,1,1,1.7c0.1,0.7-0.2,1.4-0.7,1.9C313.2,387.4,274.6,403.1,233.9,403.2
				C233.9,403.2,233.9,403.2,233.9,403.2z M294.3,336.3c-12.9,24.2-31.1,45.5-52.9,62.1c35.8-1.8,69.5-16.1,95.9-40.7
				C323.9,348.7,309.5,341.5,294.3,336.3z"/>
		</g>
		<g>
			<path fill="#FFFFFF" d="M173.8,333.4c-17.2,5.7-33.2,13.8-47.7,23.9c27.7,26.8,65.4,43.4,107,43.5
				C208.3,383.5,187.9,360.4,173.8,333.4z"/>
			<path d="M233,403.2C233,403.2,233,403.2,233,403.2c-40.7-0.1-79.3-15.8-108.6-44.2c-0.5-0.5-0.8-1.2-0.7-1.9
				c0.1-0.7,0.4-1.3,1-1.7c14.9-10.3,31.1-18.5,48.3-24.2c1.1-0.4,2.3,0.1,2.8,1.1c13.8,26.4,34,49.5,58.5,66.6
				c0.8,0.6,1.2,1.6,0.9,2.6C235,402.6,234.1,403.2,233,403.2z M129.8,357.7c26.3,24.6,60,38.9,95.8,40.7
				c-21.8-16.6-40-37.9-52.9-62.1C157.5,341.5,143.1,348.7,129.8,357.7z"/>
		</g>
		<g>
			<path fill="#FFFFFF" d="M233,400.9c0.1,0.1,0.3,0.2,0.4,0.3c0.2-0.1,0.3-0.2,0.4-0.3c-0.1,0-0.3,0-0.4,0
				C233.3,400.9,233.2,400.9,233,400.9z"/>
			<path d="M233.5,403.5c-0.5,0-0.9-0.1-1.3-0.4c0,0-0.3-0.2-0.3-0.2c-0.8-0.6-1.3-1.7-1-2.7c0.3-1,1.1-1.7,2.1-1.7l0.4,1.8l0.1-0.2
				l0.1-1.6c1-0.1,2.1,0.6,2.4,1.6c0.3,1,0,2.1-0.8,2.6l-1.3-1.6v0.2l0.9,1.7C234.4,403.4,233.9,403.5,233.5,403.5z"/>
		</g>
		<g>
			<path fill="#F1F2F2" d="M233.5,323.7c-20.9,0-40.9,3.4-59.6,9.7c14.1,27,34.4,50.1,59.2,67.5c0.1,0,0.3,0,0.4,0V323.7z"/>
			<path d="M233.5,403.2c0,0-0.2,0-0.3,0c-0.5,0-1.1-0.2-1.5-0.4c-25.1-17.6-45.8-41.2-59.9-68.3c-0.3-0.6-0.4-1.3-0.1-2
				c0.3-0.6,0.8-1.1,1.4-1.3c19.5-6.5,39.8-9.8,60.4-9.8c1.3,0,2.3,1,2.3,2.3v77.2C235.8,402.2,234.8,403.2,233.5,403.2z
				 M177.2,334.8c13.1,24.3,31.7,45.5,53.9,61.9v-70.6C212.8,326.3,194.7,329.2,177.2,334.8z"/>
		</g>
		<g>
			<path fill="#FFFFFF" d="M293.1,333.4c-18.7-6.3-38.8-9.7-59.6-9.7v77.2c0.2,0,0.3,0,0.4,0C258.7,383.5,279.1,360.4,293.1,333.4z"
				/>
			<path d="M233.9,403.2c-1.3,0-2.8-1-2.8-2.3v-77.2c0-1.3,1-2.3,2.3-2.3c20.5,0,40.9,3.3,60.4,9.8c0.6,0.2,1.2,0.7,1.4,1.3
				c0.3,0.6,0.2,1.3-0.1,2c-14.1,27.1-34.8,50.7-59.9,68.3C234.8,403.1,234.4,403.2,233.9,403.2z M235.8,326.1v70.6
				c22.3-16.3,40.8-37.6,53.9-61.9C272.3,329.2,254.1,326.3,235.8,326.1z"/>
		</g>
	</g>
	<g>
		<path fill="#FFE7AD" d="M449.1,474.8c0,17.6-14.3,31.8-31.8,31.8H255.4c-17.6,0-31.8-14.3-31.8-31.8V313
			c0-17.6,14.3-31.8,31.8-31.8h161.9c17.6,0,31.8,14.3,31.8,31.8V474.8z"/>
		<path d="M417.2,509H255.4c-18.8,0-34.2-15.3-34.2-34.2V313c0-18.8,15.3-34.2,34.2-34.2h161.9c18.8,0,34.2,15.3,34.2,34.2v161.9
			C451.4,493.7,436.1,509,417.2,509z M255.4,283.4c-16.3,0-29.5,13.2-29.5,29.5v161.9c0,16.3,13.2,29.5,29.5,29.5h161.9
			c16.3,0,29.5-13.2,29.5-29.5V313c0-16.3-13.2-29.5-29.5-29.5H255.4z"/>
	</g>
	<g>
		<path fill="#FF9C8B" d="M794.3,119.4c0,10.1-8.2,18.2-18.2,18.2c-10.1,0-18.2-8.1-18.2-18.2c0-10.1,8.2-18.2,18.2-18.2
			C786.1,101.2,794.3,109.3,794.3,119.4z"/>
		<path d="M776.1,139.9c-11.3,0-20.5-9.2-20.5-20.5c0-11.3,9.2-20.5,20.5-20.5c11.3,0,20.5,9.2,20.5,20.5
			C796.6,130.7,787.4,139.9,776.1,139.9z M776.1,103.5c-8.8,0-15.9,7.1-15.9,15.9s7.1,15.9,15.9,15.9c8.8,0,15.9-7.1,15.9-15.9
			S784.8,103.5,776.1,103.5z"/>
	</g>
	<g>
		<path fill="#FF9C8B" d="M704.2,119.4c0,10.1-8.2,18.2-18.2,18.2s-18.2-8.1-18.2-18.2c0-10.1,8.2-18.2,18.2-18.2
			S704.2,109.3,704.2,119.4z"/>
		<path d="M686,139.9c-11.3,0-20.5-9.2-20.5-20.5c0-11.3,9.2-20.5,20.5-20.5c11.3,0,20.5,9.2,20.5,20.5
			C706.5,130.7,697.3,139.9,686,139.9z M686,103.5c-8.8,0-15.9,7.1-15.9,15.9s7.1,15.9,15.9,15.9c8.8,0,15.9-7.1,15.9-15.9
			S694.7,103.5,686,103.5z"/>
	</g>
	<g>
		<path fill="#FF9C8B" d="M614.1,119.4c0,10.1-8.2,18.2-18.2,18.2c-10.1,0-18.2-8.1-18.2-18.2c0-10.1,8.2-18.2,18.2-18.2
			C606,101.2,614.1,109.3,614.1,119.4z"/>
		<path d="M595.9,139.9c-11.3,0-20.5-9.2-20.5-20.5c0-11.3,9.2-20.5,20.5-20.5c11.3,0,20.5,9.2,20.5,20.5
			C616.5,130.7,607.2,139.9,595.9,139.9z M595.9,103.5c-8.8,0-15.9,7.1-15.9,15.9s7.1,15.9,15.9,15.9s15.9-7.1,15.9-15.9
			S604.7,103.5,595.9,103.5z"/>
	</g>
	<g>
		<polygon fill="#DDD6FF" points="402.1,540.8 389.2,540.8 303.3,540.8 290.7,540.8 290.7,566.6 402.1,566.6 		"/>
		<path d="M402.1,568.9H290.7c-1.3,0-2.3-1-2.3-2.3v-25.8c0-1.3,1-2.3,2.3-2.3h111.3c1.3,0,2.3,1,2.3,2.3v25.8
			C404.4,567.9,403.4,568.9,402.1,568.9z M293.1,564.3h106.7v-21.1H293.1V564.3z"/>
	</g>
	<g>
		<path fill="#FFFFFF" d="M389.2,523.6c3-2.4,14.3-12.1,14.3-26.3v-70.5c0-9-7.3-16.3-16.3-16.3c-5.5,0-10.3,2.7-13.3,6.9
			c-1.7-7.2-8.2-12.6-15.9-12.6c-5.7,0-10.7,2.9-13.6,7.4c-2.1-6.6-8.3-11.3-15.5-11.3c-5.2,0-9.9,2.5-12.9,6.3v-55.4
			c0-9-7.3-16.3-16.3-16.3c-9,0-16.3,7.3-16.3,16.3v102.1l-14.1,17.1l-0.1,0.5c0,0,0,0.6,0,1.8c0,5.7,1.2,19.9,12,28.9l18.7,19.3
			c0.3,0.8,1.1,2.9,1.8,6.1c0.5,2.1,1.1,8.3,1.5,12.5l0.1,1h86V523.6z"/>
		<path fill="#231F20" d="M389.2,543.2h-86c-1.2,0-2.2-0.9-2.3-2.1l-0.1-1c-0.3-3.8-0.9-10.2-1.4-12.1c-0.6-2.6-1.3-4.5-1.6-5.4
			l-18.4-18.9c-11.4-9.5-12.7-24.5-12.7-30.5c0-1.2,0-1.9,0-1.9l0.1-0.6c0-0.5,0.2-0.9,0.5-1.3l13.6-16.4V351.7
			c0-10.3,8.4-18.7,18.7-18.7c10.3,0,18.6,8.4,18.6,18.7v50.1c3.1-2.1,6.7-3.3,10.5-3.3c6.8,0,12.8,3.6,16.1,9.3
			c3.4-3.4,8.1-5.3,13-5.3c7.3,0,13.7,4.1,16.8,10.5c3.4-3,7.8-4.7,12.4-4.7c10.3,0,18.7,8.4,18.7,18.7v70.5c0,14-10,23.8-14.3,27.4
			v16.1C391.5,542.1,390.5,543.2,389.2,543.2z M305.4,538.5h81.5v-14.9c0-0.7,0.3-1.4,0.9-1.8c3.1-2.4,13.4-11.4,13.4-24.4v-70.5
			c0-7.7-6.3-14-14-14c-4.5,0-8.8,2.2-11.4,5.9c-0.5,0.7-1.5,1.1-2.3,0.9c-0.9-0.2-1.6-0.9-1.8-1.8c-1.5-6.3-7.1-10.8-13.6-10.8
			c-4.7,0-9.1,2.4-11.7,6.3c-0.5,0.7-1.4,1.2-2.3,1c-0.9-0.1-1.6-0.7-1.9-1.6c-1.9-5.8-7.2-9.7-13.3-9.7c-4.3,0-8.3,2-11,5.4
			c-0.6,0.8-1.7,1.1-2.6,0.8c-0.9-0.3-1.6-1.2-1.6-2.2v-55.4c0-7.7-6.3-14-14-14c-7.7,0-14,6.3-14,14v102.1c0,0.5-0.2,1.1-0.5,1.5
			l-13.6,16.5c0,0.2,0,0.7,0,1.4c0,5.4,1.1,18.7,11.2,27.1l18.9,19.4c0.2,0.2,0.4,0.5,0.5,0.8c0.2,0.6,1.1,2.9,1.9,6.3
			C304.4,528.8,304.9,533.4,305.4,538.5z"/>
	</g>
	<g>
		<path fill="#231F20" d="M283.3,475.9c-1.3,0-2.3-1-2.3-2.3v-19.8c0-1.3,1-2.3,2.3-2.3c1.3,0,2.3,1,2.3,2.3v19.8
			C285.6,474.9,284.6,475.9,283.3,475.9z"/>
	</g>
	<g>
		<path fill="#231F20" d="M373.9,453.3c-1.3,0-2.3-1-2.3-2.3v-33.6c0-1.3,1-2.3,2.3-2.3c1.3,0,2.3,1,2.3,2.3v33.6
			C376.2,452.2,375.1,453.3,373.9,453.3z"/>
	</g>
	<g>
		<path fill="#231F20" d="M344.3,453.3c-1.3,0-2.3-1-2.3-2.3v-38.8c0-1.3,1-2.3,2.3-2.3c1.3,0,2.3,1,2.3,2.3v38.8
			C346.7,452.2,345.6,453.3,344.3,453.3z"/>
	</g>
	<g>
		<path fill="#231F20" d="M315.9,453.3c-1.3,0-2.3-1-2.3-2.3v-43.8c0-1.3,1-2.3,2.3-2.3c1.3,0,2.3,1,2.3,2.3v43.8
			C318.3,452.2,317.2,453.3,315.9,453.3z"/>
	</g>
	<g>
		<path fill="#231F20" d="M309.2,364.6H289c-1.3,0-2.3-1-2.3-2.3s1-2.3,2.3-2.3h20.2c1.3,0,2.3,1,2.3,2.3S310.5,364.6,309.2,364.6z"
			/>
	</g>
	<g>
		<path fill="#231F20" d="M271.1,390.4h-22.2c-1.3,0-2.3-1-2.3-2.3c0-1.3,1-2.3,2.3-2.3h22.2c1.3,0,2.3,1,2.3,2.3
			C273.4,389.3,272.4,390.4,271.1,390.4z"/>
	</g>
	<g>
		<path fill="#231F20" d="M271.1,364.6h-22.2c-1.3,0-2.3-1-2.3-2.3s1-2.3,2.3-2.3h22.2c1.3,0,2.3,1,2.3,2.3S272.4,364.6,271.1,364.6
			z"/>
	</g>
	<g>
		<path fill="#231F20" d="M416.1,390.4H331c-1.3,0-2.3-1-2.3-2.3c0-1.3,1-2.3,2.3-2.3h85.2c1.3,0,2.3,1,2.3,2.3
			C418.5,389.3,417.4,390.4,416.1,390.4z"/>
	</g>
	<g>
		<path fill="#231F20" d="M416.1,364.6H331c-1.3,0-2.3-1-2.3-2.3s1-2.3,2.3-2.3h85.2c1.3,0,2.3,1,2.3,2.3S417.4,364.6,416.1,364.6z"
			/>
	</g>
	<g>
		<path fill="#231F20" d="M416.1,337.7h-93.3c-1.3,0-2.3-1-2.3-2.3c0-1.3,1-2.3,2.3-2.3h93.3c1.3,0,2.3,1,2.3,2.3
			C418.5,336.7,417.4,337.7,416.1,337.7z"/>
	</g>
	<g>
		<path d="M1327.2,901.7H895.5c-1.3,0-2.3-1-2.3-2.3V521.8c0-1.3,1-2.3,2.3-2.3h431.6c1.3,0,2.3,1,2.3,2.3v377.6
			C1329.5,900.7,1328.5,901.7,1327.2,901.7z M897.9,897.1h427V524.1h-427V897.1z"/>
	</g>
	<g>
		<polygon fill="#FFE7AD" points="531.5,899.4 570.6,831.7 609.6,899.4 		"/>
		<path d="M609.7,901.7C609.7,901.7,609.7,901.7,609.7,901.7h-78.2c-0.8,0-1.6-0.4-2-1.2c-0.4-0.7-0.4-1.6,0-2.3l39.1-67.7
			c0.8-1.4,3.2-1.4,4,0l38.8,67.2c0.4,0.4,0.7,1,0.7,1.7C612.1,900.7,611,901.7,609.7,901.7z M535.5,897.1h70.1l-35-60.7
			L535.5,897.1z"/>
	</g>
	<g>
		<polygon fill="#FFE7AD" points="646.9,899.4 686,831.7 725.1,899.4 		"/>
		<path d="M725.2,901.7C725.1,901.7,725.1,901.7,725.2,901.7h-78.2c-0.8,0-1.6-0.4-2-1.2c-0.4-0.7-0.4-1.6,0-2.3l39.1-67.7
			c0.8-1.4,3.2-1.4,4,0l38.8,67.2c0.4,0.4,0.7,1,0.7,1.7C727.5,900.7,726.4,901.7,725.2,901.7z M651,897.1H721l-35-60.7L651,897.1z"
			/>
	</g>
	<g>
		<polygon fill="#FFE7AD" points="762.4,899.4 801.4,831.7 840.5,899.4 		"/>
		<path d="M840.6,901.7C840.6,901.7,840.5,901.7,840.6,901.7h-78.2c-0.8,0-1.6-0.4-2-1.2c-0.4-0.7-0.4-1.6,0-2.3l39.1-67.7
			c0.8-1.4,3.2-1.4,4,0l38.8,67.2c0.4,0.4,0.7,1,0.7,1.7C842.9,900.7,841.9,901.7,840.6,901.7z M766.4,897.1h70.1l-35-60.7
			L766.4,897.1z"/>
	</g>
	<g>
		<rect x="982.8" y="851.7" fill="#E6E7E8" width="314" height="19.7"/>
		<path d="M1296.8,873.7h-314c-1.3,0-2.3-1-2.3-2.3v-19.7c0-1.3,1-2.3,2.3-2.3h314c1.3,0,2.3,1,2.3,2.3v19.7
			C1299.1,872.7,1298.1,873.7,1296.8,873.7z M985.2,869.1h309.3v-15H985.2V869.1z"/>
	</g>
	<g>
		<rect x="982.8" y="809" fill="#E6E7E8" width="110.8" height="19.7"/>
		<path d="M1093.7,831H982.8c-1.3,0-2.3-1-2.3-2.3V809c0-1.3,1-2.3,2.3-2.3h110.8c1.3,0,2.3,1,2.3,2.3v19.7
			C1096,829.9,1095,831,1093.7,831z M985.2,826.3h106.2v-15H985.2V826.3z"/>
	</g>
	<g>
		<rect x="982.8" y="766.2" fill="#E6E7E8" width="110.8" height="19.7"/>
		<path d="M1093.7,788.2H982.8c-1.3,0-2.3-1-2.3-2.3v-19.7c0-1.3,1-2.3,2.3-2.3h110.8c1.3,0,2.3,1,2.3,2.3v19.7
			C1096,787.1,1095,788.2,1093.7,788.2z M985.2,783.5h106.2v-15H985.2V783.5z"/>
	</g>
	<g>
		<rect x="982.8" y="723.4" fill="#E6E7E8" width="110.8" height="19.7"/>
		<path d="M1093.7,745.4H982.8c-1.3,0-2.3-1-2.3-2.3v-19.7c0-1.3,1-2.3,2.3-2.3h110.8c1.3,0,2.3,1,2.3,2.3v19.7
			C1096,744.4,1095,745.4,1093.7,745.4z M985.2,740.7h106.2v-15H985.2V740.7z"/>
	</g>
	<g>
		<rect x="920.5" y="665.7" fill="#E6E7E8" width="173.2" height="32.3"/>
		<path d="M1093.7,700.3H920.5c-1.3,0-2.3-1-2.3-2.3v-32.3c0-1.3,1-2.3,2.3-2.3h173.2c1.3,0,2.3,1,2.3,2.3v32.3
			C1096,699.2,1095,700.3,1093.7,700.3z M922.8,695.6h168.5V668H922.8V695.6z"/>
	</g>
	<g>
		<rect x="1123.6" y="665.7" fill="#939598" width="173.2" height="163"/>
		<path d="M1296.8,831h-173.2c-1.3,0-2.3-1-2.3-2.3v-163c0-1.3,1-2.3,2.3-2.3h173.2c1.3,0,2.3,1,2.3,2.3v163
			C1299.1,829.9,1298.1,831,1296.8,831z M1126,826.3h168.5V668H1126V826.3z"/>
	</g>
	<g>
		<rect x="1123.6" y="553.7" fill="#FFFFFF" width="173.2" height="88.2"/>
		<path d="M1296.8,644.3h-173.2c-1.3,0-2.3-1-2.3-2.3v-88.2c0-1.3,1-2.3,2.3-2.3h173.2c1.3,0,2.3,1,2.3,2.3V642
			C1299.1,643.2,1298.1,644.3,1296.8,644.3z M1126,639.6h168.5V556H1126V639.6z"/>
	</g>
	<g>
		<rect x="920.5" y="609.7" fill="#E6E7E8" width="173.2" height="32.3"/>
		<path d="M1093.7,644.3H920.5c-1.3,0-2.3-1-2.3-2.3v-32.3c0-1.3,1-2.3,2.3-2.3h173.2c1.3,0,2.3,1,2.3,2.3V642
			C1096,643.2,1095,644.3,1093.7,644.3z M922.8,639.6h168.5V612H922.8V639.6z"/>
	</g>
	<g>
		<rect x="920.5" y="553.7" fill="#E6E7E8" width="173.2" height="32.3"/>
		<path d="M1093.7,588.3H920.5c-1.3,0-2.3-1-2.3-2.3v-32.3c0-1.3,1-2.3,2.3-2.3h173.2c1.3,0,2.3,1,2.3,2.3V586
			C1096,587.3,1095,588.3,1093.7,588.3z M922.8,583.6h168.5V556H922.8V583.6z"/>
	</g>
	<g>
		<g>
			<polygon points="1168.2,610 1146.6,578.3 1146.2,577.7 1142.6,577.7 1142.6,618 1146.7,618 1146.7,585.7 1168.8,618 1172.3,618 
				1172.3,577.7 1168.2,577.7 			"/>
		</g>
		<g>
			<polygon points="1182.7,599 1199.6,599 1199.6,595.1 1182.7,595.1 1182.7,581.8 1204.1,581.8 1204.1,577.7 1178.6,577.7 
				1178.6,618 1204.6,618 1204.6,613.9 1182.7,613.9 			"/>
		</g>
		<g>
			<polygon points="1237.1,609.8 1228.7,586.8 1225.4,586.8 1217,609.8 1208.4,577.7 1204.2,577.7 1215,618 1218.5,618 1227,593.9 
				1235.6,618 1239.1,618 1249.8,577.7 1245.6,577.7 			"/>
		</g>
		<g>
			<path d="M1273.2,598.4c-1.6-1-4.5-2.1-8.5-3.2c-0.3-0.1-0.5-0.2-0.9-0.3c-4.5-1.2-6.3-2.2-7-2.8c-1.3-1.2-1.9-2.6-1.9-4.3
				c0-2.4,0.8-4.2,2.4-5.4c1.5-1.2,3.5-1.8,6.1-1.8c2.8,0,4.9,0.7,6.7,2.2c1.8,1.5,2.6,3.6,2.7,6.3l0,1.1h4.1l-0.1-1.2
				c-0.2-3.9-1.5-6.9-4-9c-2.4-2.1-5.5-3.2-9.3-3.2c-3.5,0-6.5,0.9-8.7,2.7c-2.5,1.9-3.8,4.8-3.8,8.4c0,2.9,1,5.3,3.1,7.1
				c1.3,1.2,4.2,2.4,8.8,3.7c0.1,0,0.2,0.1,0.3,0.1l0.3,0.1c4.7,1.3,6.5,2.1,7.3,2.6c2,1.3,3,3.1,3,5.6c0,2.4-0.9,4.3-2.9,5.7
				c-1.8,1.3-4,2-6.7,2c-3.1,0-5.4-0.8-7.2-2.6c-1.8-1.8-2.7-4.1-2.9-7.1l-0.1-1.1h-4.1l0.1,1.2c0.3,4.2,1.7,7.4,4.1,9.8
				c2.5,2.4,5.8,3.7,9.9,3.7c3.9,0,7.1-1,9.6-2.9c2.8-2.2,4.2-5.3,4.2-9.1C1277.8,603.2,1276.2,600.4,1273.2,598.4z"/>
		</g>
	</g>
	<g>
		<path d="M948.9,863.9h-28.4c-1.3,0-2.3-1-2.3-2.3s1-2.3,2.3-2.3h28.4c1.3,0,2.3,1,2.3,2.3S950.2,863.9,948.9,863.9z"/>
	</g>
	<g>
		<path d="M948.9,821.1h-28.4c-1.3,0-2.3-1-2.3-2.3s1-2.3,2.3-2.3h28.4c1.3,0,2.3,1,2.3,2.3S950.2,821.1,948.9,821.1z"/>
	</g>
	<g>
		<path d="M948.9,778.3h-28.4c-1.3,0-2.3-1-2.3-2.3c0-1.3,1-2.3,2.3-2.3h28.4c1.3,0,2.3,1,2.3,2.3
			C951.2,777.3,950.2,778.3,948.9,778.3z"/>
	</g>
	<g>
		<path d="M948.9,735.6h-28.4c-1.3,0-2.3-1-2.3-2.3c0-1.3,1-2.3,2.3-2.3h28.4c1.3,0,2.3,1,2.3,2.3
			C951.2,734.5,950.2,735.6,948.9,735.6z"/>
	</g>
	<g>
		<g>
			<path d="M1254.6,276.8c-0.6,0-1.2-0.2-1.7-0.7c-0.9-0.9-0.9-2.4,0-3.3l33.4-33.4c0.9-0.9,2.4-0.9,3.3,0c0.9,0.9,0.9,2.4,0,3.3
				l-33.4,33.4C1255.8,276.6,1255.2,276.8,1254.6,276.8z"/>
		</g>
		<g>
			<path d="M1288,276.8c-0.6,0-1.2-0.2-1.6-0.7l-33.4-33.4c-0.9-0.9-0.9-2.4,0-3.3c0.9-0.9,2.4-0.9,3.3,0l33.4,33.4
				c0.9,0.9,0.9,2.4,0,3.3C1289.2,276.6,1288.6,276.8,1288,276.8z"/>
		</g>
	</g>
	<g>
		<g>
			<path d="M153.5,525.7c-0.6,0-1.2-0.2-1.6-0.7c-0.9-0.9-0.9-2.4,0-3.3l33.4-33.4c0.9-0.9,2.4-0.9,3.3,0c0.9,0.9,0.9,2.4,0,3.3
				L155.1,525C154.7,525.5,154.1,525.7,153.5,525.7z"/>
		</g>
		<g>
			<path d="M186.9,525.7c-0.6,0-1.2-0.2-1.6-0.7l-33.4-33.4c-0.9-0.9-0.9-2.4,0-3.3c0.9-0.9,2.4-0.9,3.3,0l33.4,33.4
				c0.9,0.9,0.9,2.4,0,3.3C188.1,525.5,187.5,525.7,186.9,525.7z"/>
		</g>
	</g>
	<g>
		<g>
			<path d="M438.2,222.1c-0.6,0-1.2-0.2-1.7-0.7c-0.9-0.9-0.9-2.4,0-3.3l33.4-33.4c0.9-0.9,2.4-0.9,3.3,0s0.9,2.4,0,3.3l-33.4,33.4
				C439.3,221.9,438.8,222.1,438.2,222.1z"/>
		</g>
		<g>
			<path d="M471.6,222.1c-0.6,0-1.2-0.2-1.6-0.7L436.5,188c-0.9-0.9-0.9-2.4,0-3.3c0.9-0.9,2.4-0.9,3.3,0l33.4,33.4
				c0.9,0.9,0.9,2.4,0,3.3C472.8,221.9,472.2,222.1,471.6,222.1z"/>
		</g>
	</g>
	<g>
		<g>
			<path d="M938.4,161.8c-0.6,0-1.2-0.2-1.6-0.7c-0.9-0.9-0.9-2.4,0-3.3l33.4-33.4c0.9-0.9,2.4-0.9,3.3,0c0.9,0.9,0.9,2.4,0,3.3
				L940,161.1C939.6,161.6,939,161.8,938.4,161.8z"/>
		</g>
		<g>
			<path d="M971.8,161.8c-0.6,0-1.2-0.2-1.7-0.7l-33.4-33.4c-0.9-0.9-0.9-2.4,0-3.3c0.9-0.9,2.4-0.9,3.3,0l33.4,33.4
				c0.9,0.9,0.9,2.4,0,3.3C973,161.6,972.4,161.8,971.8,161.8z"/>
		</g>
	</g>
	<g>
		<path d="M1267.9,131.2c-8.9,0-16.2-7.3-16.2-16.2c0-8.9,7.3-16.2,16.2-16.2c8.9,0,16.2,7.3,16.2,16.2
			C1284.1,124,1276.8,131.2,1267.9,131.2z M1267.9,103.5c-6.4,0-11.5,5.2-11.5,11.5c0,6.4,5.2,11.5,11.5,11.5
			c6.4,0,11.5-5.2,11.5-11.5C1279.4,108.7,1274.3,103.5,1267.9,103.5z"/>
	</g>
	<g>
		<path d="M89.1,444.3c-12,0-21.8-9.8-21.8-21.8s9.8-21.8,21.8-21.8s21.8,9.8,21.8,21.8S101.1,444.3,89.1,444.3z M89.1,405.4
			c-9.4,0-17.1,7.7-17.1,17.1s7.7,17.1,17.1,17.1s17.1-7.7,17.1-17.1S98.6,405.4,89.1,405.4z"/>
	</g>
	<g>
		<path d="M403.5,133.1c-12,0-21.8-9.8-21.8-21.8c0-12,9.8-21.8,21.8-21.8c12,0,21.8,9.8,21.8,21.8
			C425.3,123.3,415.5,133.1,403.5,133.1z M403.5,94.2c-9.4,0-17.1,7.7-17.1,17.1s7.7,17.1,17.1,17.1s17.1-7.7,17.1-17.1
			S412.9,94.2,403.5,94.2z"/>
	</g>
	<g>
		<path d="M945.4,260.1c-12,0-21.8-9.8-21.8-21.8s9.8-21.8,21.8-21.8c12,0,21.8,9.8,21.8,21.8S957.4,260.1,945.4,260.1z
			 M945.4,221.2c-9.4,0-17.1,7.7-17.1,17.1s7.7,17.1,17.1,17.1c9.4,0,17.1-7.7,17.1-17.1S954.8,221.2,945.4,221.2z"/>
	</g>
	<g>
		<path d="M1297,198.1h-30.4c-1.3,0-2.3-1-2.3-2.3s1-2.3,2.3-2.3h30.4c1.3,0,2.3,1,2.3,2.3S1298.2,198.1,1297,198.1z"/>
	</g>
	<g>
		<path d="M109.5,497H79.1c-1.3,0-2.3-1-2.3-2.3c0-1.3,1-2.3,2.3-2.3h30.4c1.3,0,2.3,1,2.3,2.3C111.8,496,110.8,497,109.5,497z"/>
	</g>
	<g>
		<path d="M185.4,436.5H155c-1.3,0-2.3-1-2.3-2.3s1-2.3,2.3-2.3h30.4c1.3,0,2.3,1,2.3,2.3S186.7,436.5,185.4,436.5z"/>
	</g>
	<g>
		<path d="M502,133.1h-30.4c-1.3,0-2.3-1-2.3-2.3s1-2.3,2.3-2.3H502c1.3,0,2.3,1,2.3,2.3S503.3,133.1,502,133.1z"/>
	</g>
	<g>
		<path d="M916.9,188.4h-30.4c-1.3,0-2.3-1-2.3-2.3s1-2.3,2.3-2.3h30.4c1.3,0,2.3,1,2.3,2.3S918.2,188.4,916.9,188.4z"/>
	</g>
	<g>
		<path d="M471.6,901.7H79.1c-1.3,0-2.3-1-2.3-2.3V567c0-1.3,1-2.3,2.3-2.3h392.5c1.3,0,2.3,1,2.3,2.3v332.4
			C473.9,900.7,472.9,901.7,471.6,901.7z M81.4,897.1h387.8V569.3H81.4V897.1z"/>
	</g>
	<g>
		<rect x="113.2" y="748.2" fill="#FFE7AD" width="113.9" height="113.9"/>
		<path d="M227.2,864.5H113.2c-1.3,0-2.3-1-2.3-2.3V748.2c0-1.3,1-2.3,2.3-2.3h113.9c1.3,0,2.3,1,2.3,2.3v113.9
			C229.5,863.4,228.4,864.5,227.2,864.5z M115.6,859.8h109.3V750.6H115.6V859.8z"/>
	</g>
	<g>
		<rect x="113.2" y="604.3" fill="#FF9C8B" width="113.9" height="113.9"/>
		<path d="M227.2,720.5H113.2c-1.3,0-2.3-1-2.3-2.3V604.3c0-1.3,1-2.3,2.3-2.3h113.9c1.3,0,2.3,1,2.3,2.3v113.9
			C229.5,719.5,228.4,720.5,227.2,720.5z M115.6,715.8h109.3V606.6H115.6V715.8z"/>
	</g>
	<g>
		<rect x="255.9" y="603.3" fill="#E6E7E8" width="193.1" height="14.2"/>
		<path d="M449.1,619.9H255.9c-1.3,0-2.3-1-2.3-2.3v-14.2c0-1.3,1-2.3,2.3-2.3h193.1c1.3,0,2.3,1,2.3,2.3v14.2
			C451.4,618.8,450.4,619.9,449.1,619.9z M258.3,615.2h188.5v-9.5H258.3V615.2z"/>
	</g>
	<g>
		<rect x="255.9" y="636.5" fill="#E6E7E8" width="193.1" height="14.2"/>
		<path d="M449.1,653.1H255.9c-1.3,0-2.3-1-2.3-2.3v-14.2c0-1.3,1-2.3,2.3-2.3h193.1c1.3,0,2.3,1,2.3,2.3v14.2
			C451.4,652,450.4,653.1,449.1,653.1z M258.3,648.4h188.5v-9.5H258.3V648.4z"/>
	</g>
	<g>
		<rect x="255.9" y="669.8" fill="#E6E7E8" width="193.1" height="14.2"/>
		<path d="M449.1,686.3H255.9c-1.3,0-2.3-1-2.3-2.3v-14.2c0-1.3,1-2.3,2.3-2.3h193.1c1.3,0,2.3,1,2.3,2.3V684
			C451.4,685.3,450.4,686.3,449.1,686.3z M258.3,681.7h188.5v-9.5H258.3V681.7z"/>
	</g>
	<g>
		<rect x="255.9" y="703" fill="#E6E7E8" width="193.1" height="14.2"/>
		<path d="M449.1,719.6H255.9c-1.3,0-2.3-1-2.3-2.3V703c0-1.3,1-2.3,2.3-2.3h193.1c1.3,0,2.3,1,2.3,2.3v14.2
			C451.4,718.5,450.4,719.6,449.1,719.6z M258.3,714.9h188.5v-9.5H258.3V714.9z"/>
	</g>
	<g>
		<rect x="255.9" y="748.2" fill="#E6E7E8" width="193.1" height="14.2"/>
		<path d="M449.1,764.8H255.9c-1.3,0-2.3-1-2.3-2.3v-14.2c0-1.3,1-2.3,2.3-2.3h193.1c1.3,0,2.3,1,2.3,2.3v14.2
			C451.4,763.7,450.4,764.8,449.1,764.8z M258.3,760.1h188.5v-9.5H258.3V760.1z"/>
	</g>
	<g>
		<rect x="255.9" y="781.5" fill="#E6E7E8" width="193.1" height="14.2"/>
		<path d="M449.1,798H255.9c-1.3,0-2.3-1-2.3-2.3v-14.2c0-1.3,1-2.3,2.3-2.3h193.1c1.3,0,2.3,1,2.3,2.3v14.2
			C451.4,797,450.4,798,449.1,798z M258.3,793.3h188.5v-9.5H258.3V793.3z"/>
	</g>
	<g>
		<rect x="255.9" y="814.7" fill="#E6E7E8" width="193.1" height="14.2"/>
		<path d="M449.1,831.2H255.9c-1.3,0-2.3-1-2.3-2.3v-14.2c0-1.3,1-2.3,2.3-2.3h193.1c1.3,0,2.3,1,2.3,2.3v14.2
			C451.4,830.2,450.4,831.2,449.1,831.2z M258.3,826.6h188.5V817H258.3V826.6z"/>
	</g>
	<g>
		<rect x="255.9" y="847.9" fill="#E6E7E8" width="193.1" height="14.2"/>
		<path d="M449.1,864.5H255.9c-1.3,0-2.3-1-2.3-2.3v-14.2c0-1.3,1-2.3,2.3-2.3h193.1c1.3,0,2.3,1,2.3,2.3v14.2
			C451.4,863.4,450.4,864.5,449.1,864.5z M258.3,859.8h188.5v-9.5H258.3V859.8z"/>
	</g>
	<g>
		<circle fill="#FFFFFF" cx="346.4" cy="660.3" r="72.9"/>
		<path d="M346.4,735.5c-41.5,0-75.3-33.8-75.3-75.3s33.8-75.3,75.3-75.3c41.5,0,75.3,33.8,75.3,75.3S387.9,735.5,346.4,735.5z
			 M346.4,589.7c-38.9,0-70.6,31.7-70.6,70.6s31.7,70.6,70.6,70.6c38.9,0,70.6-31.7,70.6-70.6S385.3,589.7,346.4,589.7z"/>
	</g>
	<g>
		<rect x="319.9" y="776" fill="#DDD6FF" width="53" height="102.8"/>
		<path d="M372.9,881.1h-53c-1.3,0-2.3-1-2.3-2.3V776c0-1.3,1-2.3,2.3-2.3h53c1.3,0,2.3,1,2.3,2.3v102.8
			C375.2,880.1,374.2,881.1,372.9,881.1z M322.2,876.5h48.4v-98.1h-48.4V876.5z"/>
	</g>
	<g>
		<line fill="#FFFFFF" x1="346.4" y1="733.2" x2="346.4" y2="776"/>
		<path d="M346.4,778.3c-1.3,0-2.3-1-2.3-2.3v-42.8c0-1.3,1-2.3,2.3-2.3s2.3,1,2.3,2.3V776C348.7,777.3,347.7,778.3,346.4,778.3z"/>
	</g>
	<g>
		<g>
			<polygon fill="#FF9C8B" points="336.7,709.4 289.1,661.9 305.6,645.4 336.7,676.4 387.2,626 403.7,642.5 			"/>
			<path d="M336.7,711.8c-0.6,0-1.2-0.2-1.6-0.7l-47.6-47.6c-0.9-0.9-0.9-2.4,0-3.3l16.5-16.5c0.9-0.9,2.4-0.9,3.3,0l29.4,29.4
				l48.8-48.8c0.9-0.9,2.4-0.9,3.3,0l16.5,16.5c0.9,0.9,0.9,2.4,0,3.3l-67,67C337.9,711.5,337.3,711.8,336.7,711.8z M292.4,661.9
				l44.3,44.3l63.7-63.7l-13.2-13.2l-48.8,48.8c-0.9,0.9-2.4,0.9-3.3,0l-29.4-29.4L292.4,661.9z"/>
		</g>
	</g>
	<g>
		<path d="M202.4,663.5c-1.3,0-2.3-1-2.3-2.3v-17.9h-17.9c-1.3,0-2.3-1-2.3-2.3c0-1.3,1-2.3,2.3-2.3h20.2c1.3,0,2.3,1,2.3,2.3v20.2
			C204.7,662.5,203.7,663.5,202.4,663.5z"/>
	</g>
	<g>
		<path d="M113.2,699.2c-0.6,0-1.2-0.2-1.6-0.7c-0.9-0.9-0.9-2.4,0-3.3l31.4-31.4c0.4-0.4,1-0.7,1.7-0.7l0,0c0.6,0,1.2,0.2,1.6,0.7
			l15,15l30.3-30.3c0.9-0.9,2.4-0.9,3.3,0c0.9,0.9,0.9,2.4,0,3.3l-31.9,31.9c-0.4,0.4-1,0.7-1.6,0.7l0,0c-0.6,0-1.2-0.2-1.6-0.7
			l-15-15l-29.7,29.7C114.4,699,113.8,699.2,113.2,699.2z"/>
	</g>
	<g>
		<path d="M203.8,864.5c-1.3,0-2.3-1-2.3-2.3V776c0-1.3,1-2.3,2.3-2.3c1.3,0,2.3,1,2.3,2.3v86.1
			C206.2,863.4,205.1,864.5,203.8,864.5z"/>
	</g>
	<g>
		<path d="M181.3,864.5c-1.3,0-2.3-1-2.3-2.3v-36.8c0-1.3,1-2.3,2.3-2.3c1.3,0,2.3,1,2.3,2.3v36.8
			C183.6,863.4,182.6,864.5,181.3,864.5z"/>
	</g>
	<g>
		<path d="M158.7,864.5c-1.3,0-2.3-1-2.3-2.3v-53.7c0-1.3,1-2.3,2.3-2.3c1.3,0,2.3,1,2.3,2.3v53.7
			C161.1,863.4,160,864.5,158.7,864.5z"/>
	</g>
	<g>
		<path d="M136.2,864.5c-1.3,0-2.3-1-2.3-2.3v-22.6c0-1.3,1-2.3,2.3-2.3c1.3,0,2.3,1,2.3,2.3v22.6
			C138.5,863.4,137.4,864.5,136.2,864.5z"/>
	</g>
	<g>
		<path d="M357,881.1c-1.3,0-2.3-1-2.3-2.3v-83.1c0-1.3,1-2.3,2.3-2.3s2.3,1,2.3,2.3v83.1C359.4,880.1,358.3,881.1,357,881.1z"/>
	</g>
</g>
</svg>
